<svg width="25" height="24" viewBox="0 0 25 24" fill="none" xmlns="http://www.w3.org/2000/svg">
<path d="M2.77201 11.5H0C0.0523746 10.0723 0.327221 8.68087 0.808683 7.38148H3.51631C3.50766 7.40486 3.50333 7.42923 3.49469 7.45262C3.39042 7.76553 3.29768 8.0849 3.21503 8.40876C3.2011 8.46298 3.18572 8.5177 3.17275 8.57242C3.09203 8.90175 3.02331 9.23655 2.96613 9.57582C2.95749 9.62607 2.95028 9.67581 2.94163 9.72606C2.88733 10.0698 2.84409 10.418 2.81381 10.7703C2.80997 10.8115 2.80805 10.8528 2.80517 10.8936C2.79075 11.0941 2.7797 11.2966 2.77201 11.5ZM3.28375 15.8579C3.28278 15.8549 3.28182 15.8514 3.28086 15.8484C3.20687 15.5808 3.14296 15.3082 3.08386 15.0331C3.06896 14.9624 3.05359 14.8923 3.03965 14.8212C2.98439 14.5411 2.93442 14.2595 2.89502 13.974C2.89502 13.972 2.89406 13.97 2.89406 13.968C2.85562 13.6839 2.82823 13.3954 2.80565 13.1059C2.79988 13.0327 2.79556 12.9586 2.79075 12.885C2.78306 12.7552 2.77682 12.6258 2.77201 12.495H0.00144163C0.0542968 13.9486 0.331066 15.337 0.803879 16.613H3.51871C3.43462 16.3643 3.3539 16.1136 3.28375 15.8579ZM9.16412 23.6135C9.1079 23.5816 9.05168 23.5488 8.99402 23.516C8.77539 23.3866 8.55773 23.2533 8.34727 23.1095C8.33958 23.1046 8.33333 23.0991 8.32661 23.0946C8.12095 22.9543 7.92106 22.8046 7.72502 22.6499C7.67264 22.6091 7.62075 22.5673 7.56838 22.5255C7.36945 22.3638 7.17436 22.1977 6.98457 22.0226C6.97784 22.0161 6.97159 22.0096 6.96487 22.0032C6.82408 21.8723 6.68617 21.7385 6.55211 21.6007H4.24811C5.8304 22.9409 7.75241 23.798 9.84163 23.9687C9.83586 23.9662 9.83154 23.9627 9.82577 23.9602C9.60137 23.8527 9.38179 23.7358 9.16412 23.6135ZM5.29945 20.0978C5.25812 20.0411 5.21776 19.9839 5.17836 19.9257C5.02893 19.7083 4.88285 19.4884 4.74591 19.2611C4.74111 19.2526 4.7363 19.2442 4.73102 19.2352C4.59792 19.0128 4.47202 18.784 4.34998 18.5517C4.31826 18.489 4.28511 18.4263 4.2534 18.3632C4.13231 18.1224 4.01507 17.8781 3.90696 17.6284C3.90407 17.6214 3.90215 17.615 3.89927 17.608C3.89927 17.608 3.89927 17.6075 3.89831 17.6075H1.22191C1.74758 18.7248 2.42893 19.7322 3.22753 20.6048H5.68001C5.54931 20.4401 5.42246 20.271 5.29945 20.0978ZM6.75345 2.20081C6.85291 2.10381 6.95333 2.0068 7.05568 1.91377C7.17004 1.8093 7.28584 1.70633 7.40404 1.60733C7.58135 1.45759 7.76346 1.31482 7.94845 1.17702C8.05849 1.09593 8.16804 1.01633 8.27952 0.938729C8.48709 0.79496 8.69899 0.658652 8.91474 0.52931C8.95991 0.502447 9.00219 0.470608 9.04688 0.444242C9.10694 0.409419 9.16989 0.381063 9.23091 0.347732C9.36305 0.274106 9.49855 0.204461 9.63357 0.136307C9.70132 0.102977 9.76571 0.0631791 9.83442 0.0308435C8.41165 0.145262 7.04895 0.575574 5.7737 1.31283C5.32972 1.56902 4.91216 1.8685 4.50758 2.18937H6.69627C6.71645 2.18887 6.73375 2.19833 6.75345 2.20081ZM25 11.9975C25 18.6159 20.2267 24 14.3588 24C8.4943 24 3.72196 18.6159 3.72196 11.9975C3.72196 11.6538 3.73782 11.311 3.76425 10.9712C3.76713 10.9344 3.76809 10.8971 3.77193 10.8598C3.79932 10.5344 3.83969 10.2111 3.89014 9.89122C3.89783 9.84446 3.90407 9.79819 3.91176 9.75243C3.96413 9.43952 4.029 9.12959 4.103 8.82365C4.11501 8.77191 4.12847 8.72117 4.14144 8.66993C4.21736 8.37144 4.30385 8.07744 4.39947 7.78791C4.42013 7.72772 4.44175 7.66901 4.46241 7.60982C4.559 7.33123 4.66326 7.05713 4.77858 6.7875C4.80886 6.71686 4.84249 6.6487 4.87324 6.57906C4.97175 6.35917 5.07698 6.14277 5.18845 5.92986C5.24755 5.81594 5.30858 5.70401 5.37056 5.59307C5.47195 5.41348 5.57718 5.23738 5.68673 5.06376C5.76842 4.93292 5.85299 4.80458 5.939 4.67772C6.04903 4.51853 6.16147 4.36183 6.27871 4.20811C6.37048 4.08623 6.46562 3.96584 6.5622 3.84794C6.68906 3.69323 6.81927 3.54398 6.95285 3.39773C7.0504 3.29027 7.14986 3.18332 7.25124 3.08034C7.39491 2.93508 7.54147 2.79529 7.69138 2.65898C7.78796 2.57043 7.88551 2.48288 7.98497 2.39831C8.15507 2.25454 8.32949 2.11774 8.50776 1.98541C8.60145 1.91477 8.69659 1.84612 8.79221 1.77945C8.9873 1.64414 9.18622 1.5153 9.38996 1.39391C9.49711 1.32974 9.60378 1.26706 9.71285 1.20736C9.74553 1.18945 9.77868 1.17204 9.81135 1.15463C9.94638 1.082 10.0824 1.01136 10.2207 0.945195C10.2236 0.9442 10.2255 0.943205 10.2284 0.941713C10.6969 0.718846 11.1817 0.532792 11.681 0.386038C11.6906 0.383053 11.7007 0.379571 11.7103 0.376586C11.852 0.335793 11.9957 0.299478 12.1403 0.264655C12.1855 0.25371 12.2312 0.242269 12.2763 0.23232C12.4041 0.203466 12.5315 0.178592 12.6602 0.155211C12.7299 0.142774 12.7991 0.131333 12.8688 0.120388C12.9812 0.102977 13.0941 0.0860632 13.2075 0.0716365C13.308 0.0596972 13.4093 0.050742 13.5117 0.0417875C13.5982 0.033828 13.6852 0.0243763 13.7726 0.0189041C13.9667 0.00746226 14.1633 1.37922e-07 14.3593 1.37922e-07C20.2272 -0.000994804 25 5.38114 25 11.9975ZM22.6518 8.55203C22.3976 8.62814 22.2501 8.90374 22.3231 9.1679C22.4077 9.47135 22.4788 9.78227 22.535 10.0917C22.5783 10.3305 22.7801 10.4971 23.0069 10.4971C23.0362 10.4971 23.066 10.4942 23.0963 10.4882C23.3562 10.4374 23.5287 10.1778 23.4792 9.90763C23.4182 9.56736 23.3394 9.2256 23.2467 8.8913C23.1736 8.62913 22.9103 8.47691 22.6518 8.55203ZM21.1925 6.58204C21.3568 6.8467 21.5106 7.12279 21.6495 7.40337C21.735 7.57549 21.9027 7.67399 22.0776 7.67399C22.1516 7.67399 22.2261 7.65658 22.2962 7.61927C22.5326 7.4944 22.6258 7.19443 22.5048 6.94967C22.352 6.64024 22.1819 6.3348 21.9997 6.04278C21.8561 5.81096 21.5587 5.7448 21.3352 5.89454C21.1127 6.04328 21.0484 6.35121 21.1925 6.58204ZM13.8586 2.07545C13.8586 2.35055 14.0921 2.57292 14.3579 2.57292C14.6591 2.57292 14.9643 2.59133 15.2636 2.62764C15.2823 2.63013 15.3011 2.63112 15.3198 2.63112C15.5601 2.63112 15.7686 2.44507 15.7965 2.19136C15.8272 1.91875 15.6389 1.6715 15.3751 1.63966C15.0392 1.59887 14.6966 1.57798 14.3579 1.57798H14.3213C14.0556 1.57798 13.8586 1.80035 13.8586 2.07545ZM11.041 2.78385C11.113 2.98433 11.2961 3.1077 11.4917 3.1077C11.5469 3.1077 11.6041 3.09726 11.6589 3.07636C11.9433 2.96642 12.235 2.87389 12.5262 2.80027C12.7842 2.7351 12.9428 2.46596 12.8798 2.19932C12.8169 1.93268 12.556 1.76752 12.2989 1.83368C11.9712 1.91626 11.643 2.02073 11.324 2.1436C11.0751 2.24011 10.9482 2.52616 11.041 2.78385ZM6.84138 6.7666C6.9221 6.81933 7.01147 6.84471 7.10037 6.84471C7.25893 6.84471 7.41365 6.76362 7.50591 6.61537C7.66928 6.35022 7.84851 6.09004 8.03686 5.8428C8.20119 5.6269 8.1666 5.31399 7.95806 5.14435C7.74952 4.97322 7.44729 5.01053 7.28344 5.22593C7.07394 5.49905 6.87693 5.78609 6.69578 6.0791C6.55356 6.31092 6.61794 6.61885 6.84138 6.7666ZM5.79052 9.54896C5.83473 9.56189 5.87893 9.56786 5.9217 9.56786C6.1312 9.56786 6.32436 9.42509 6.38346 9.2057C6.46611 8.90473 6.56461 8.60128 6.67608 8.30478C6.7717 8.04859 6.64966 7.76005 6.40316 7.66056C6.15618 7.55957 5.87653 7.68692 5.78091 7.94312C5.6579 8.26897 5.55027 8.60227 5.45897 8.93408C5.3869 9.19924 5.53489 9.47434 5.79052 9.54896ZM5.53153 12.5089C5.79725 12.5089 6.01203 12.2706 6.01203 11.9955C6.01203 11.6896 6.025 11.3797 6.05143 11.0737C6.07498 10.8001 5.87989 10.5588 5.61514 10.5344C5.35807 10.5101 5.11782 10.7125 5.09427 10.9862C5.06593 11.3205 5.05103 11.6597 5.05103 11.995V12.0264C5.05103 12.302 5.26581 12.5089 5.53153 12.5089ZM6.07209 15.4589C6.32724 15.3823 6.47379 15.1062 6.40076 14.8425C6.31523 14.5396 6.24315 14.2287 6.18693 13.9187C6.13696 13.6491 5.88566 13.4725 5.62475 13.5228C5.36384 13.5745 5.19326 13.8347 5.24275 14.1043C5.30569 14.4456 5.3845 14.7868 5.47723 15.1196C5.53826 15.3375 5.7295 15.4788 5.939 15.4788C5.98272 15.4783 6.02789 15.4718 6.07209 15.4589ZM7.5357 17.4254C7.37041 17.1613 7.21665 16.8852 7.07778 16.6056C6.95574 16.3618 6.66695 16.2633 6.43007 16.3902C6.19462 16.516 6.10141 16.8155 6.22249 17.0603C6.37529 17.3692 6.54635 17.6742 6.72942 17.9667C6.8212 18.1134 6.97544 18.1935 7.13304 18.1935C7.22338 18.1935 7.31323 18.1676 7.39395 18.1134C7.61643 17.9642 7.68033 17.6562 7.5357 17.4254ZM9.35296 19.5372C9.12136 19.3402 8.89408 19.1263 8.67929 18.9009C8.49334 18.7054 8.18918 18.7034 7.99986 18.8959C7.81103 19.089 7.80959 19.4039 7.99506 19.5994C8.23339 19.8496 8.48565 20.0879 8.74512 20.3078C8.8345 20.3829 8.94213 20.4202 9.04928 20.4202C9.18815 20.4202 9.32605 20.358 9.42167 20.2376C9.58936 20.0252 9.55813 19.7118 9.35296 19.5372ZM10.1785 3.24003C10.0319 3.01069 9.73448 2.94851 9.51296 3.09875C9.23331 3.28978 8.95943 3.5007 8.69659 3.72606C8.49286 3.90167 8.46499 4.21507 8.63365 4.4265C8.7283 4.5449 8.86525 4.60609 9.00411 4.60609C9.11223 4.60609 9.22082 4.56878 9.31019 4.49167C9.54564 4.28969 9.79165 4.10066 10.042 3.92952C10.264 3.7778 10.325 3.46936 10.1785 3.24003ZM11.7103 20.9371C11.4258 20.8296 11.1462 20.7043 10.8781 20.5645C10.6397 20.4396 10.3514 20.5391 10.2323 20.7843C10.1131 21.0296 10.2078 21.3291 10.4451 21.4524C10.7474 21.6101 11.0616 21.7514 11.3807 21.8718C11.435 21.8922 11.4907 21.9022 11.545 21.9022C11.741 21.9022 11.9251 21.7768 11.9962 21.5753C12.0875 21.3166 11.9592 21.0311 11.7103 20.9371ZM14.8485 21.9186C14.8485 21.6435 14.6231 21.4211 14.3579 21.4211C14.0624 21.4211 13.7649 21.4037 13.4718 21.3689C13.208 21.335 12.9707 21.5335 12.9399 21.8062C12.9096 22.0788 13.0985 22.3255 13.3623 22.3569C13.6909 22.3962 14.0258 22.4161 14.3579 22.4161H14.3785C14.6438 22.4161 14.8485 22.1937 14.8485 21.9186ZM17.6594 21.2166C17.5676 20.959 17.2923 20.8261 17.0419 20.9231C16.7604 21.0316 16.4687 21.1231 16.1746 21.1972C15.9166 21.2619 15.758 21.5306 15.821 21.7977C15.8734 22.0255 16.0708 22.1783 16.2876 22.1783C16.325 22.1783 16.3625 22.1738 16.4009 22.1643C16.7306 22.0818 17.0588 21.9783 17.3759 21.8564C17.6248 21.7609 17.7521 21.4748 17.6594 21.2166ZM17.6445 13.468C17.4004 13.3586 17.1179 13.4755 17.0131 13.7272C16.4846 14.9928 15.4404 15.7793 14.2877 15.7793C12.5983 15.7793 11.2245 14.0869 11.2245 12.006C11.2245 9.92505 12.5983 8.23265 14.2877 8.23265C15.242 8.23265 16.1251 8.76793 16.7118 9.70119C16.8565 9.93151 17.1549 9.99818 17.3764 9.84694C17.5988 9.69721 17.6627 9.38927 17.5172 9.15894C17.0837 8.46795 16.499 7.94462 15.8412 7.61728C15.8469 7.58743 15.858 7.56106 15.858 7.52972V5.95573C15.858 5.68062 15.6432 5.45825 15.3775 5.45825C15.1118 5.45825 14.897 5.68062 14.897 5.95573V7.29989C14.6961 7.26308 14.4934 7.23721 14.2877 7.23721C14.1123 7.23721 13.9413 7.25512 13.7726 7.28049V5.95573C13.7726 5.68062 13.5578 5.45825 13.2921 5.45825C13.0264 5.45825 12.8116 5.68062 12.8116 5.95573V7.4362C12.8116 7.48147 12.8255 7.52176 12.8371 7.56355C11.3336 8.25553 10.264 9.98325 10.264 12.006C10.264 14.0222 11.3264 15.746 12.8222 16.4419C12.8212 16.4558 12.8145 16.4678 12.8145 16.4817V18.1935C12.8145 18.4686 13.0293 18.691 13.295 18.691C13.5607 18.691 13.7755 18.4686 13.7755 18.1935V16.731C13.9437 16.7568 14.1133 16.7742 14.2877 16.7742C14.4953 16.7742 14.6985 16.7523 14.8994 16.7165V18.194C14.8994 18.4691 15.1142 18.6915 15.3799 18.6915C15.6456 18.6915 15.8604 18.4691 15.8604 18.194V16.4822C15.8604 16.4534 15.8493 16.429 15.8455 16.4016C16.7219 15.9683 17.4552 15.1768 17.8953 14.1222C18.0001 13.87 17.8881 13.5775 17.6445 13.468ZM18.5022 3.21715C18.6223 2.97189 18.5267 2.67242 18.2903 2.54904C17.9861 2.39035 17.6719 2.24907 17.3557 2.12918C17.1068 2.03466 16.831 2.16698 16.7392 2.42517C16.6484 2.68336 16.7757 2.96891 17.0256 3.06293C17.3072 3.17038 17.5868 3.29624 17.8578 3.43703C17.9275 3.47334 18.0005 3.49026 18.0736 3.49026C18.2485 3.49076 18.4176 3.39027 18.5022 3.21715ZM20.0691 19.58C19.9009 19.3685 19.5987 19.3387 19.3935 19.5133C19.1571 19.7148 18.9111 19.9033 18.6607 20.074C18.4383 20.2252 18.3773 20.5336 18.5228 20.763C18.6146 20.9087 18.7689 20.9873 18.9245 20.9873C19.0154 20.9873 19.1067 20.9609 19.1883 20.9057C19.468 20.7152 19.7428 20.5048 20.0057 20.2799C20.2099 20.1053 20.2392 19.7919 20.0691 19.58ZM20.3939 5.25329C20.516 5.25329 20.638 5.20554 20.7307 5.11052C20.9205 4.9175 20.9229 4.6026 20.7365 4.4071C20.4982 4.15587 20.2464 3.91759 19.9884 3.6982C19.7837 3.52259 19.4795 3.55543 19.3128 3.76685C19.1437 3.97927 19.1739 4.29268 19.3786 4.46679C19.6102 4.66379 19.8365 4.8782 20.0513 5.10455C20.1455 5.20405 20.2699 5.25329 20.3939 5.25329ZM21.8657 17.2428C21.6423 17.0936 21.3448 17.1613 21.2021 17.3931C21.0368 17.6597 20.8576 17.9194 20.6702 18.1642C20.5049 18.3791 20.539 18.692 20.7471 18.8626C20.8355 18.9352 20.9402 18.9711 21.0455 18.9711C21.1872 18.9711 21.327 18.9069 21.4217 18.783C21.6302 18.5124 21.8282 18.2254 22.0113 17.9304C22.1535 17.699 22.0891 17.3911 21.8657 17.2428ZM22.9233 14.463C22.6672 14.3864 22.4014 14.5401 22.3294 14.8042C22.2448 15.1077 22.1463 15.4112 22.0348 15.7052C21.9382 15.9614 22.0603 16.2499 22.3068 16.3499C22.364 16.3738 22.4231 16.3842 22.4822 16.3842C22.6734 16.3842 22.8546 16.2643 22.929 16.0683C23.052 15.745 23.1606 15.4122 23.2529 15.0784C23.3259 14.8137 23.1775 14.5386 22.9233 14.463ZM23.6214 13.0263C23.6517 12.687 23.6666 12.3403 23.6666 11.9955L23.6656 11.9512C23.6488 11.6921 23.4403 11.4876 23.1861 11.4876C22.9204 11.4876 22.7056 11.71 22.7056 11.9846V12.0229C22.7046 12.3283 22.6917 12.6353 22.6643 12.9357C22.6407 13.2094 22.8349 13.4511 23.0996 13.4765C23.1136 13.478 23.1289 13.4785 23.1438 13.4785C23.3898 13.479 23.5989 13.285 23.6214 13.0263ZM3.90215 6.37907C3.93579 6.30147 3.9723 6.22585 4.00738 6.14924C4.11069 5.92041 4.21928 5.69605 4.33508 5.47567C4.40475 5.34135 4.47683 5.20902 4.54987 5.07719C4.65413 4.89313 4.76177 4.71205 4.87469 4.53395C4.97127 4.37924 5.07073 4.22801 5.17404 4.07777C5.28455 3.91709 5.39843 3.75939 5.51567 3.60468C5.57189 3.53055 5.62186 3.44996 5.68001 3.37683C5.73142 3.31216 5.78908 3.25545 5.84049 3.19177C5.84338 3.18929 5.8453 3.1863 5.84722 3.18382H3.40147C3.15161 3.44449 2.91136 3.7181 2.68264 4.00713C2.10652 4.73493 1.62506 5.53785 1.22624 6.38604H3.89927C3.90023 6.38405 3.90119 6.38156 3.90215 6.37907Z" fill="#C5C7CD"/>
</svg>
