<svg width="77" height="77" viewBox="0 0 77 77" fill="none" xmlns="http://www.w3.org/2000/svg">
<rect width="76.2903" height="76.2903" rx="38.1452" fill="#242B28"/>
<path fill-rule="evenodd" clip-rule="evenodd" d="M56.4369 15.4858C57.9423 17.022 58.8729 19.1408 58.8729 21.487C58.8729 23.8331 57.9423 25.9519 56.4369 27.4881C54.9316 29.0243 52.8553 29.9739 50.5601 29.9739C49.3793 29.9739 48.2571 29.7225 47.2405 29.2716L46.4702 30.756C49.0547 32.5196 50.7595 35.5241 50.7595 38.9317C50.7595 41.8086 49.5474 44.3981 47.6158 46.1977L48.4096 47.2351C49.6608 46.469 51.1232 46.0261 52.6872 46.0261C54.9824 46.0261 57.0626 46.9757 58.564 48.5119C60.0694 50.0481 61 52.1669 61 54.513C61 56.8592 60.0694 58.978 58.564 60.5142C57.0586 62.0504 54.9824 63 52.6872 63C50.392 63 48.3118 62.0504 46.8064 60.5142C45.3011 58.978 44.3705 56.8592 44.3705 54.513C44.3705 52.1669 45.3011 50.0481 46.8064 48.5119C46.8534 48.4641 46.9003 48.4202 46.9472 48.3723L46.173 47.3069C44.7067 48.2286 42.9785 48.7593 41.129 48.7593C37.7038 48.7593 34.6931 46.9319 32.9883 44.1827L28.3548 46.6366C29.1603 47.9453 29.6256 49.4895 29.6256 51.1494C29.6256 53.4916 28.695 55.6143 27.1896 57.1465C25.6843 58.6827 23.608 59.6324 21.3089 59.6324C19.0137 59.6324 16.9335 58.6827 15.4321 57.1465C13.9306 55.6063 13 53.4836 13 51.1414C13 48.7992 13.9306 46.6765 15.436 45.1403C16.9413 43.6041 19.0176 42.6545 21.3128 42.6545C23.608 42.6545 25.6882 43.6041 27.1935 45.1403L27.2053 45.1562L32.1672 42.5268C31.737 41.4135 31.5024 40.1966 31.5024 38.9277C31.5024 37.0883 31.999 35.3645 32.8631 33.8922L29.7077 31.3904C29.6295 31.4782 29.5474 31.566 29.4653 31.6497C27.9599 33.1859 25.8837 34.1356 23.5885 34.1356C21.2933 34.1356 19.2131 33.1859 17.7116 31.6497C16.2063 30.1136 15.2757 27.9948 15.2757 25.6486C15.2757 23.3025 16.2063 21.1837 17.7116 19.6515C19.217 18.1153 21.2933 17.1657 23.5885 17.1657C25.8837 17.1657 27.9638 18.1153 29.4653 19.6515C30.9707 21.1877 31.9013 23.3064 31.9013 25.6486C31.9013 27.2008 31.4946 28.6532 30.783 29.9061L33.9345 32.4039C35.6979 30.3809 38.2669 29.1041 41.1329 29.1041C42.4624 29.1041 43.7253 29.3794 44.8788 29.8742L45.6725 28.3499C45.3206 28.0906 44.9922 27.7993 44.6872 27.4881C43.1818 25.9519 42.2512 23.8331 42.2512 21.487C42.2512 19.1408 43.1818 17.022 44.6872 15.4858C46.1847 13.9496 48.2649 13 50.5601 13C52.8553 13 54.9355 13.9496 56.4369 15.4858ZM42.306 41.3457C42.5601 41.6051 42.7165 41.9602 42.7165 42.3552C42.7165 42.7462 42.5601 43.1053 42.306 43.3647C42.0518 43.6241 41.7038 43.7837 41.3206 43.7837C40.9335 43.7837 40.5855 43.6241 40.3314 43.3647C40.0772 43.1053 39.9208 42.7502 39.9208 42.3552C39.9208 41.9642 40.0772 41.6051 40.3314 41.3457C40.5855 41.0863 40.9335 40.9267 41.3206 40.9267C41.6999 40.9267 42.0518 41.0863 42.306 41.3457ZM44.0186 35.1371C44.871 35.5401 45.7155 36.1306 46.5406 36.9247C46.6735 37.0523 46.74 37.2199 46.7478 37.3915C46.7517 37.5631 46.6931 37.7347 46.5718 37.8703L46.5562 37.8863C46.435 38.01 46.2747 38.0738 46.1144 38.0778C45.9462 38.0818 45.7781 38.0219 45.6491 37.8983L45.6373 37.8863C44.9335 37.212 44.218 36.7052 43.5064 36.3661C42.783 36.0229 42.0596 35.8473 41.3441 35.8354C40.6168 35.8234 39.8895 35.979 39.1623 36.2942C38.4311 36.6134 37.7038 37.0962 36.9922 37.7386C36.9804 37.7506 36.9687 37.7626 36.9531 37.7706C36.8201 37.8783 36.6598 37.9262 36.5073 37.9142C36.347 37.9062 36.1867 37.8344 36.0694 37.7027C36.0577 37.6908 36.0459 37.6788 36.0381 37.6628C35.9326 37.5312 35.8856 37.3636 35.8974 37.204C35.9091 37.0324 35.9834 36.8688 36.1163 36.7451C36.9492 35.991 37.8094 35.4244 38.6891 35.0453C39.5689 34.6663 40.4643 34.4827 41.3675 34.4987C42.2512 34.5146 43.1388 34.7221 44.0186 35.1371ZM42.955 37.9222C43.4751 38.1257 43.9873 38.4329 44.48 38.8439L44.4956 38.8559C44.6285 38.9716 44.7067 39.1312 44.7224 39.2988C44.738 39.4624 44.695 39.6379 44.5855 39.7776L44.5699 39.7975C44.4565 39.9332 44.3001 40.013 44.1359 40.033C43.9716 40.0489 43.7957 40.001 43.6549 39.8853C43.2717 39.5661 42.8847 39.3307 42.4936 39.1751C42.1026 39.0195 41.7077 38.9397 41.3167 38.9437C40.9257 38.9437 40.5269 39.0275 40.1359 39.1871C39.737 39.3467 39.3421 39.5901 38.9589 39.9053C38.8182 40.021 38.6461 40.0689 38.478 40.0529C38.3138 40.0369 38.1535 39.9532 38.0362 39.8095C37.9228 39.6659 37.8759 39.4903 37.8915 39.3187V39.3068C37.911 39.1392 37.9892 38.9836 38.1261 38.8678C38.6227 38.4569 39.1388 38.1456 39.6706 37.9342C40.2063 37.7227 40.7537 37.611 41.3089 37.611C41.8719 37.607 42.4194 37.7107 42.955 37.9222ZM20.4409 24.5873H21.0469V23.7334C21.0469 23.0271 21.3284 22.3887 21.7859 21.9259C22.2395 21.463 22.869 21.1717 23.5611 21.1717C24.2532 21.1717 24.8788 21.459 25.3324 21.9259C25.7859 22.3887 26.0714 23.0311 26.0714 23.7334V24.5873H26.5523C26.6579 24.5873 26.7478 24.679 26.7478 24.7868V29.0043C26.7478 29.112 26.6579 29.2038 26.5523 29.2038H20.437C20.3314 29.2038 20.2414 29.112 20.2414 29.0043V24.7868C20.2414 24.675 20.3314 24.5873 20.4409 24.5873ZM22.0205 24.5873H25.0899V23.7174C25.0899 23.2865 24.9179 22.8955 24.6403 22.6122C24.3627 22.3289 23.9756 22.1533 23.5572 22.1533C23.1349 22.1533 22.7517 22.3289 22.4741 22.6122C22.1965 22.8955 22.0244 23.2905 22.0244 23.7174V24.5873H22.0205ZM21.3128 46.7683L16.8045 51.2771L17.9032 51.8676L21.2854 48.2486L24.7224 51.8676L25.8211 51.2771L21.3128 46.7683ZM18.1456 52.3344L21.3206 49.0945L24.4839 52.3344V55.5106H22.173H20.437H18.1456V52.3344ZM20.9961 53.3759L20.5777 54.4931H22.044L21.6569 53.3599C21.9032 53.2322 22.0714 52.9729 22.0714 52.6656C22.0714 52.2347 21.7273 51.8876 21.3089 51.8876C20.8866 51.8876 20.5464 52.2387 20.5464 52.6656C20.5543 52.9809 20.738 53.2522 20.9961 53.3759ZM55.2796 53.4557C55.2053 53.4916 55.131 53.5355 55.0567 53.5794C54.8338 53.711 54.6149 53.8746 54.3881 54.0622L53.9071 53.5036C54.0714 53.3479 54.2512 53.2043 54.4428 53.0766C54.5953 52.9769 54.7517 52.8851 54.9159 52.8093C54.9824 52.7774 55.045 52.7454 55.1114 52.7175C54.7947 52.1469 54.3412 51.7359 53.825 51.4846C53.3128 51.2332 52.7341 51.1374 52.175 51.1893C51.6197 51.2452 51.0762 51.4526 50.6266 51.8078C50.1105 52.2187 49.7155 52.8292 49.563 53.6392L49.5161 53.8946L49.2698 53.9385C49.0274 53.9824 48.8123 54.0422 48.6207 54.118C48.4369 54.1898 48.2727 54.2816 48.1281 54.3854C48.0147 54.4692 47.913 54.5649 47.8309 54.6687C47.5689 54.9879 47.4477 55.3869 47.4516 55.7899C47.4555 56.2009 47.5846 56.6158 47.827 56.955C47.9169 57.0827 48.0225 57.1984 48.1398 57.2981C48.261 57.4019 48.3978 57.4857 48.5503 57.5495C48.7028 57.6134 48.8671 57.6572 49.0547 57.6852H56.2375C56.5894 57.5974 56.8944 57.4817 57.1564 57.3341C57.4184 57.1864 57.6295 57.0029 57.7898 56.7874C58.0362 56.4522 58.1613 55.9734 58.1652 55.4866C58.173 54.9759 58.0479 54.4612 57.8094 54.0861C57.7429 53.9784 57.6647 53.8826 57.5865 53.7948C57.2268 53.3998 56.7732 53.2322 56.304 53.2282C55.9677 53.2203 55.6158 53.304 55.2796 53.4557ZM47.7019 21.1598C47.479 20.673 47.3539 20.1662 47.3578 19.6435C47.3617 19.1208 47.4907 18.5822 47.7761 18.0235C47.7761 18.0196 47.7801 18.0156 47.7801 18.0116C48.1515 17.3692 48.6716 16.9382 49.2502 16.6988C49.7351 16.4953 50.263 16.4275 50.7791 16.4754C51.2952 16.5233 51.7996 16.6908 52.2414 16.9542C52.8006 17.2934 53.262 17.7961 53.5161 18.4305C53.653 18.7737 53.7468 19.1567 53.7586 19.5757C53.7703 19.9947 53.6999 20.4455 53.5122 20.9204L52.1046 23.1548L49.1681 23.5857C49.0235 23.1468 48.7928 22.66 48.4956 22.3089C48.175 21.9458 47.9091 21.6106 47.7019 21.1598ZM49.4614 25.4491C49.3245 25.0661 49.3363 24.8267 49.219 24.304L52.304 23.8371C52.1867 24.3957 52.2923 24.683 52.2102 25.1219C51.956 26.5065 49.9306 26.7299 49.4614 25.4491ZM57.6334 49.4536C56.3666 48.1608 54.6188 47.3628 52.6833 47.3628C50.7478 47.3628 49 48.1608 47.7331 49.4536C46.4663 50.7464 45.6843 52.534 45.6843 54.5051C45.6843 56.4762 46.4663 58.2637 47.7331 59.5565C49 60.8493 50.7517 61.6474 52.6833 61.6474C54.6149 61.6474 56.3666 60.8493 57.6334 59.5565C58.9003 58.2637 59.6823 56.4762 59.6823 54.5051C59.6823 52.534 58.9003 50.7464 57.6334 49.4536ZM55.5103 16.4315C54.2434 15.1387 52.4956 14.3407 50.5601 14.3407C48.6285 14.3407 46.8768 15.1387 45.61 16.4315C44.3431 17.7243 43.5611 19.5079 43.5611 21.483C43.5611 23.4581 44.3431 25.2416 45.61 26.5344C46.8768 27.8272 48.6246 28.6252 50.5601 28.6252C52.4917 28.6252 54.2434 27.8272 55.5103 26.5344C56.7771 25.2416 57.5591 23.4541 57.5591 21.483C57.5591 19.5119 56.7771 17.7243 55.5103 16.4315ZM28.5347 20.5932C27.2678 19.3004 25.52 18.5024 23.5846 18.5024C21.6491 18.5024 19.9013 19.3004 18.6344 20.5932C17.3675 21.886 16.5855 23.6735 16.5855 25.6446C16.5855 27.6158 17.3675 29.4033 18.6344 30.6961C19.9013 31.9889 21.6491 32.7869 23.5846 32.7869C25.5161 32.7869 27.2678 31.9889 28.5347 30.6961C29.8016 29.4033 30.5836 27.6197 30.5836 25.6446C30.5875 23.6735 29.8016 21.886 28.5347 20.5932ZM26.263 46.0899C24.9961 44.7971 23.2444 43.9991 21.3128 43.9991C19.3812 43.9991 17.6295 44.7971 16.3627 46.0899C15.0958 47.3827 14.3138 49.1663 14.3138 51.1414C14.3138 53.1125 15.0958 54.9001 16.3627 56.1929C17.6295 57.4857 19.3773 58.2837 21.3128 58.2837C23.2444 58.2837 24.9961 57.4857 26.263 56.1929C27.5298 54.9001 28.3118 53.1165 28.3118 51.1414C28.3157 49.1663 27.5298 47.3827 26.263 46.0899Z" fill="#01DA63" fill-opacity="0.9"/>
</svg>
