<svg width="48" height="50" viewBox="0 0 48 50" fill="none" xmlns="http://www.w3.org/2000/svg">
<path fill-rule="evenodd" clip-rule="evenodd" d="M43.4369 2.48584C44.9423 4.02203 45.8729 6.14077 45.8729 8.48695C45.8729 10.8331 44.9423 12.9519 43.4369 14.4881C41.9316 16.0243 39.8553 16.9739 37.5601 16.9739C36.3793 16.9739 35.2571 16.7225 34.2405 16.2716L33.4702 17.756C36.0547 19.5196 37.7595 22.5241 37.7595 25.9317C37.7595 28.8086 36.5474 31.3981 34.6158 33.1977L35.4096 34.2351C36.6608 33.469 38.1232 33.0261 39.6872 33.0261C41.9824 33.0261 44.0626 33.9757 45.564 35.5119C47.0694 37.0481 48 39.1669 48 41.513C48 43.8592 47.0694 45.978 45.564 47.5142C44.0586 49.0504 41.9824 50 39.6872 50C37.392 50 35.3118 49.0504 33.8064 47.5142C32.3011 45.978 31.3705 43.8592 31.3705 41.513C31.3705 39.1669 32.3011 37.0481 33.8064 35.5119C33.8534 35.4641 33.9003 35.4202 33.9472 35.3723L33.173 34.3069C31.7067 35.2286 29.9785 35.7593 28.129 35.7593C24.7038 35.7593 21.6931 33.9319 19.9883 31.1827L15.3548 33.6366C16.1603 34.9453 16.6256 36.4895 16.6256 38.1494C16.6256 40.4916 15.695 42.6143 14.1896 44.1465C12.6843 45.6827 10.608 46.6324 8.3089 46.6324C6.01369 46.6324 3.93353 45.6827 2.43206 44.1465C0.930596 42.6063 0 40.4836 0 38.1414C0 35.7992 0.930596 33.6765 2.43597 32.1403C3.94135 30.6041 6.0176 29.6545 8.31281 29.6545C10.608 29.6545 12.6882 30.6041 14.1935 32.1403L14.2053 32.1562L19.1672 29.5268C18.737 28.4135 18.5024 27.1966 18.5024 25.9277C18.5024 24.0883 18.999 22.3645 19.8631 20.8922L16.7077 18.3904C16.6295 18.4782 16.5474 18.566 16.4653 18.6497C14.9599 20.1859 12.8837 21.1356 10.5885 21.1356C8.29325 21.1356 6.2131 20.1859 4.71163 18.6497C3.20626 17.1136 2.27566 14.9948 2.27566 12.6486C2.27566 10.3025 3.20626 8.1837 4.71163 6.6515C6.21701 5.11531 8.29325 4.16567 10.5885 4.16567C12.8837 4.16567 14.9638 5.11531 16.4653 6.6515C17.9707 8.18769 18.9013 10.3064 18.9013 12.6486C18.9013 14.2008 18.4946 15.6532 17.783 16.9061L20.9345 19.4039C22.6979 17.3809 25.2669 16.1041 28.1329 16.1041C29.4624 16.1041 30.7253 16.3794 31.8788 16.8742L32.6725 15.3499C32.3206 15.0906 31.9922 14.7993 31.6872 14.4881C30.1818 12.9519 29.2512 10.8331 29.2512 8.48695C29.2512 6.14077 30.1818 4.02203 31.6872 2.48584C33.1847 0.949645 35.2649 0 37.5601 0C39.8553 0 41.9355 0.949645 43.4369 2.48584ZM29.306 28.3457C29.5601 28.6051 29.7165 28.9602 29.7165 29.3552C29.7165 29.7462 29.5601 30.1053 29.306 30.3647C29.0518 30.6241 28.7038 30.7837 28.3206 30.7837C27.9335 30.7837 27.5855 30.6241 27.3314 30.3647C27.0772 30.1053 26.9208 29.7502 26.9208 29.3552C26.9208 28.9642 27.0772 28.6051 27.3314 28.3457C27.5855 28.0863 27.9335 27.9267 28.3206 27.9267C28.6999 27.9267 29.0518 28.0863 29.306 28.3457ZM31.0186 22.1371C31.871 22.5401 32.7155 23.1306 33.5406 23.9247C33.6735 24.0523 33.74 24.2199 33.7478 24.3915C33.7517 24.5631 33.6931 24.7347 33.5718 24.8703L33.5562 24.8863C33.435 25.01 33.2747 25.0738 33.1144 25.0778C32.9462 25.0818 32.7781 25.0219 32.6491 24.8983L32.6373 24.8863C31.9335 24.212 31.218 23.7052 30.5064 23.3661C29.783 23.0229 29.0596 22.8473 28.3441 22.8354C27.6168 22.8234 26.8895 22.979 26.1623 23.2942C25.4311 23.6134 24.7038 24.0962 23.9922 24.7386C23.9804 24.7506 23.9687 24.7626 23.9531 24.7706C23.8201 24.8783 23.6598 24.9262 23.5073 24.9142C23.347 24.9062 23.1867 24.8344 23.0694 24.7027C23.0577 24.6908 23.0459 24.6788 23.0381 24.6628C22.9326 24.5312 22.8856 24.3636 22.8974 24.204C22.9091 24.0324 22.9834 23.8688 23.1163 23.7451C23.9492 22.991 24.8094 22.4244 25.6891 22.0453C26.5689 21.6663 27.4643 21.4827 28.3675 21.4987C29.2512 21.5146 30.1388 21.7221 31.0186 22.1371ZM29.955 24.9222C30.4751 25.1257 30.9873 25.4329 31.48 25.8439L31.4956 25.8559C31.6285 25.9716 31.7067 26.1312 31.7224 26.2988C31.738 26.4624 31.695 26.6379 31.5855 26.7776L31.5699 26.7975C31.4565 26.9332 31.3001 27.013 31.1359 27.033C30.9716 27.0489 30.7957 27.001 30.6549 26.8853C30.2717 26.5661 29.8847 26.3307 29.4936 26.1751C29.1026 26.0195 28.7077 25.9397 28.3167 25.9437C27.9257 25.9437 27.5269 26.0275 27.1359 26.1871C26.737 26.3467 26.3421 26.5901 25.9589 26.9053C25.8182 27.021 25.6461 27.0689 25.478 27.0529C25.3138 27.0369 25.1535 26.9532 25.0362 26.8095C24.9228 26.6659 24.8759 26.4903 24.8915 26.3187V26.3068C24.911 26.1392 24.9892 25.9836 25.1261 25.8678C25.6227 25.4569 26.1388 25.1456 26.6706 24.9342C27.2063 24.7227 27.7537 24.611 28.3089 24.611C28.8719 24.607 29.4194 24.7107 29.955 24.9222ZM7.44086 11.5873H8.04692V10.7334C8.04692 10.0271 8.32845 9.38872 8.78592 8.92586C9.23949 8.46301 9.86901 8.17173 10.5611 8.17173C11.2532 8.17173 11.8788 8.45902 12.3324 8.92586C12.7859 9.38872 13.0714 10.0311 13.0714 10.7334V11.5873H13.5523C13.6579 11.5873 13.7478 11.679 13.7478 11.7868V16.0043C13.7478 16.112 13.6579 16.2038 13.5523 16.2038H7.43695C7.33138 16.2038 7.24145 16.112 7.24145 16.0043V11.7868C7.24145 11.675 7.33138 11.5873 7.44086 11.5873ZM9.02053 11.5873H12.0899V10.7174C12.0899 10.2865 11.9179 9.89546 11.6403 9.61216C11.3627 9.32886 10.9756 9.1533 10.5572 9.1533C10.1349 9.1533 9.75171 9.32886 9.4741 9.61216C9.19648 9.89546 9.02444 10.2905 9.02444 10.7174V11.5873H9.02053ZM8.31281 33.7683L3.8045 38.2771L4.90323 38.8676L8.28543 35.2486L11.7224 38.8676L12.8211 38.2771L8.31281 33.7683ZM5.14565 39.3344L8.32063 36.0945L11.4839 39.3344V42.5106H9.17302H7.43695H5.14565V39.3344ZM7.99609 40.3759L7.57771 41.4931H9.04399L8.65689 40.3599C8.90322 40.2322 9.07136 39.9729 9.07136 39.6656C9.07136 39.2347 8.72727 38.8876 8.3089 38.8876C7.88661 38.8876 7.54643 39.2387 7.54643 39.6656C7.55425 39.9809 7.73803 40.2522 7.99609 40.3759ZM42.2796 40.4557C42.2053 40.4916 42.131 40.5355 42.0567 40.5794C41.8338 40.711 41.6149 40.8746 41.3881 41.0622L40.9071 40.5036C41.0714 40.3479 41.2512 40.2043 41.4428 40.0766C41.5953 39.9769 41.7517 39.8851 41.9159 39.8093C41.9824 39.7774 42.045 39.7454 42.1114 39.7175C41.7947 39.1469 41.3412 38.7359 40.825 38.4846C40.3128 38.2332 39.7341 38.1374 39.175 38.1893C38.6197 38.2452 38.0762 38.4526 37.6266 38.8078C37.1105 39.2187 36.7155 39.8292 36.563 40.6392L36.5161 40.8946L36.2698 40.9385C36.0274 40.9824 35.8123 41.0422 35.6207 41.118C35.4369 41.1898 35.2727 41.2816 35.1281 41.3854C35.0147 41.4692 34.913 41.5649 34.8309 41.6687C34.5689 41.9879 34.4477 42.3869 34.4516 42.7899C34.4555 43.2009 34.5846 43.6158 34.827 43.955C34.9169 44.0827 35.0225 44.1984 35.1398 44.2981C35.261 44.4019 35.3978 44.4857 35.5503 44.5495C35.7028 44.6134 35.8671 44.6572 36.0547 44.6852H43.2375C43.5894 44.5974 43.8944 44.4817 44.1564 44.3341C44.4184 44.1864 44.6295 44.0029 44.7898 43.7874C45.0362 43.4522 45.1613 42.9734 45.1652 42.4866C45.173 41.9759 45.0479 41.4612 44.8094 41.0861C44.7429 40.9784 44.6647 40.8826 44.5865 40.7948C44.2268 40.3998 43.7732 40.2322 43.304 40.2282C42.9677 40.2203 42.6158 40.304 42.2796 40.4557ZM34.7019 8.15976C34.479 7.67297 34.3539 7.16623 34.3578 6.64352C34.3617 6.12082 34.4907 5.58216 34.7761 5.02354C34.7761 5.01955 34.7801 5.01556 34.7801 5.01157C35.1515 4.36916 35.6716 3.93823 36.2502 3.69883C36.7351 3.49533 37.263 3.4275 37.7791 3.47538C38.2952 3.52326 38.7996 3.69085 39.2414 3.95419C39.8006 4.29335 40.262 4.79611 40.5161 5.43053C40.653 5.77368 40.7468 6.15673 40.7586 6.57569C40.7703 6.99465 40.6999 7.44554 40.5122 7.92036L39.1046 10.1548L36.1681 10.5857C36.0235 10.1468 35.7928 9.66004 35.4956 9.30891C35.175 8.94581 34.9091 8.61065 34.7019 8.15976ZM36.4614 12.4491C36.3245 12.0661 36.3363 11.8267 36.219 11.304L39.304 10.8371C39.1867 11.3957 39.2923 11.683 39.2102 12.1219C38.956 13.5065 36.9306 13.7299 36.4614 12.4491ZM44.6334 36.4536C43.3666 35.1608 41.6188 34.3628 39.6833 34.3628C37.7478 34.3628 36 35.1608 34.7331 36.4536C33.4663 37.7464 32.6843 39.534 32.6843 41.5051C32.6843 43.4762 33.4663 45.2637 34.7331 46.5565C36 47.8493 37.7517 48.6474 39.6833 48.6474C41.6149 48.6474 43.3666 47.8493 44.6334 46.5565C45.9003 45.2637 46.6823 43.4762 46.6823 41.5051C46.6823 39.534 45.9003 37.7464 44.6334 36.4536ZM42.5103 3.43149C41.2434 2.1387 39.4956 1.34068 37.5601 1.34068C35.6285 1.34068 33.8768 2.1387 32.61 3.43149C31.3431 4.72428 30.5611 6.50786 30.5611 8.48296C30.5611 10.4581 31.3431 12.2416 32.61 13.5344C33.8768 14.8272 35.6246 15.6252 37.5601 15.6252C39.4917 15.6252 41.2434 14.8272 42.5103 13.5344C43.7771 12.2416 44.5591 10.4541 44.5591 8.48296C44.5591 6.51185 43.7771 4.72428 42.5103 3.43149ZM15.5347 7.59317C14.2678 6.30038 12.52 5.50235 10.5846 5.50235C8.64907 5.50235 6.90127 6.30038 5.63441 7.59317C4.36755 8.88596 3.58553 10.6735 3.58553 12.6446C3.58553 14.6158 4.36755 16.4033 5.63441 17.6961C6.90127 18.9889 8.64907 19.7869 10.5846 19.7869C12.5161 19.7869 14.2678 18.9889 15.5347 17.6961C16.8016 16.4033 17.5836 14.6197 17.5836 12.6446C17.5875 10.6735 16.8016 8.88596 15.5347 7.59317ZM13.263 33.0899C11.9961 31.7971 10.2444 30.9991 8.31281 30.9991C6.38123 30.9991 4.62952 31.7971 3.36266 33.0899C2.0958 34.3827 1.31378 36.1663 1.31378 38.1414C1.31378 40.1125 2.0958 41.9001 3.36266 43.1929C4.62952 44.4857 6.37732 45.2837 8.31281 45.2837C10.2444 45.2837 11.9961 44.4857 13.263 43.1929C14.5298 41.9001 15.3118 40.1165 15.3118 38.1414C15.3157 36.1663 14.5298 34.3827 13.263 33.0899Z" fill="#01DA63" fill-opacity="0.9"/>
</svg>
