<svg width="72" height="72" viewBox="0 0 72 72" fill="#565867" stroke="#273332" xmlns="http://www.w3.org/2000/svg">
<g filter="url(#filter0_d_280_2280)">
<rect x="12" y="12" width="48" height="48" rx="8" fill="" fill-opacity="1" shape-rendering="crispEdges"/>
</g>
<path d="M48.5305 24.0604H23.4697C22.4811 24.0604 21.6797 25.0221 21.6797 26.2085V32.6527C21.6797 33.839 22.4811 34.8008 23.4697 34.8008H48.5305C49.5191 34.8008 50.3206 33.839 50.3206 32.6527V26.2085C50.3206 25.0221 49.5191 24.0604 48.5305 24.0604ZM49.4256 32.6527C49.4256 33.2449 49.024 33.7267 48.5305 33.7267H23.4697C22.9762 33.7267 22.5747 33.2449 22.5747 32.6527V26.2085C22.5747 25.6162 22.9762 25.1345 23.4697 25.1345H48.5305C49.024 25.1345 49.4256 25.6162 49.4256 26.2085V32.6527Z" fill="#273332" fill-opacity="0.75"/>
<path d="M49.4256 32.6527C49.4256 33.2449 49.024 33.7267 48.5305 33.7267H23.4697C22.9762 33.7267 22.5747 33.2449 22.5747 32.6527V26.2085C22.5747 25.6162 22.9762 25.1345 23.4697 25.1345H48.5305C49.024 25.1345 49.4256 25.6162 49.4256 26.2085V32.6527Z" fill="#273332" fill-opacity="0.75"/>
<path d="M48.5305 37.2596H23.4697C22.4811 37.2596 21.6797 38.2213 21.6797 39.4077V45.8519C21.6797 47.0382 22.4811 48 23.4697 48H48.5305C49.5191 48 50.3206 47.0382 50.3206 45.8519V39.4077C50.3206 38.2213 49.5191 37.2596 48.5305 37.2596ZM49.4256 45.8519C49.4256 46.4441 49.024 46.9259 48.5305 46.9259H23.4697C22.9762 46.9259 22.5747 46.4441 22.5747 45.8519V39.4077C22.5747 38.8154 22.9762 38.3337 23.4697 38.3337H48.5305C49.024 38.3337 49.4256 38.8154 49.4256 39.4077V45.8519Z" fill="#273332" fill-opacity="0.75"/>
<path d="M49.4256 45.8519C49.4256 46.4441 49.024 46.9259 48.5305 46.9259H23.4697C22.9762 46.9259 22.5747 46.4441 22.5747 45.8519V39.4077C22.5747 38.8154 22.9762 38.3337 23.4697 38.3337H48.5305C49.024 38.3337 49.4256 38.8154 49.4256 39.4077V45.8519Z" fill="#273332" fill-opacity="0.75"/>
<path d="M35.3848 29.1323H26.4345C26.1907 29.1323 25.9932 29.339 25.9932 29.5942C25.9932 29.8494 26.1907 30.0561 26.4345 30.0561H35.3848C35.6287 30.0561 35.8262 29.8494 35.8262 29.5942C35.8262 29.339 35.6287 29.1323 35.3848 29.1323Z" fill="#273332" stroke="#2C2E2C"/>
<path d="M45.159 31.0459C45.9335 31.0459 46.5613 30.4172 46.5613 29.6416C46.5613 28.8659 45.9335 28.2372 45.159 28.2372C44.3846 28.2372 43.7568 28.8659 43.7568 29.6416C43.7568 30.4172 44.3846 31.0459 45.159 31.0459Z" fill="#273332" stroke="#75EDEC" stroke-width="0.6"/>
<path d="M35.3848 42.2593H26.4345C26.1907 42.2593 25.9932 42.466 25.9932 42.7212C25.9932 42.9763 26.1907 43.183 26.4345 43.183H35.3848C35.6287 43.183 35.8262 42.9763 35.8262 42.7212C35.8262 42.466 35.6287 42.2593 35.3848 42.2593Z" fill="#273332" stroke="#2C2E2C"/>
<path d="M45.159 44.1731C45.9335 44.1731 46.5613 43.5444 46.5613 42.7687C46.5613 41.9931 45.9335 41.3644 45.159 41.3644C44.3846 41.3644 43.7568 41.9931 43.7568 42.7687C43.7568 43.5444 44.3846 44.1731 45.159 44.1731Z" fill="#273332" stroke="#2C2E2C" stroke-width="0.6"/>
<defs>
<filter id="filter0_d_280_2280" x="0" y="0" width="72" height="72" filterUnits="userSpaceOnUse" color-interpolation-filters="sRGB">
<feFlood flood-opacity="0" result="BackgroundImageFix"/>
<feColorMatrix in="SourceAlpha" type="matrix" values="0 0 0 0 0 0 0 0 0 0 0 0 0 0 0 0 0 0 127 0" result="hardAlpha"/>
<feOffset/>
<feGaussianBlur stdDeviation="6"/>
<feComposite in2="hardAlpha" operator="out"/>
<feColorMatrix type="matrix" values="0 0 0 0 0.0823529 0 0 0 0 0.121569 0 0 0 0 0.305882 0 0 0 0.08 0"/>
<feBlend mode="normal" in2="BackgroundImageFix" result="effect1_dropShadow_280_2280"/>
<feBlend mode="normal" in="SourceGraphic" in2="effect1_dropShadow_280_2280" result="shape"/>
</filter>
</defs>
</svg>
