<svg width="59" height="53" viewBox="0 0 59 53" fill="none" xmlns="http://www.w3.org/2000/svg">
<path d="M23.7253 3.64457C23.7253 3.5489 23.7633 3.45714 23.831 3.38949C23.8986 3.32184 23.9904 3.28382 24.0861 3.28379H25.8383C25.9337 3.2843 26.025 3.32253 26.0922 3.39013C26.1595 3.45774 26.1972 3.54922 26.1972 3.64458C26.1972 3.73994 26.1595 3.83142 26.0922 3.89902C26.025 3.96663 25.9337 4.00486 25.8383 4.00536H24.0861C23.9904 4.00534 23.8986 3.96732 23.831 3.89966C23.7633 3.832 23.7253 3.74025 23.7253 3.64457ZM28.1064 3.64457C28.1064 3.5489 28.1444 3.45714 28.2121 3.38949C28.2797 3.32184 28.3715 3.28382 28.4672 3.28379H30.2194C30.3148 3.2843 30.406 3.32253 30.4733 3.39013C30.5406 3.45774 30.5783 3.54922 30.5783 3.64458C30.5783 3.73994 30.5406 3.83142 30.4733 3.89902C30.406 3.96663 30.3148 4.00486 30.2194 4.00536H28.4672C28.3715 4.00535 28.2797 3.96733 28.2121 3.89967C28.1444 3.83202 28.1064 3.74026 28.1064 3.64457ZM19.3442 3.64457C19.3442 3.5489 19.3823 3.45714 19.4499 3.38949C19.5176 3.32184 19.6093 3.28382 19.705 3.28379H21.4582C21.5057 3.28354 21.5528 3.29269 21.5968 3.31071C21.6408 3.32873 21.6808 3.35527 21.7145 3.38879C21.7482 3.42232 21.775 3.46218 21.7932 3.50607C21.8115 3.54997 21.8209 3.59704 21.8209 3.64458C21.8209 3.69212 21.8115 3.73919 21.7932 3.78308C21.775 3.82698 21.7482 3.86684 21.7145 3.90036C21.6808 3.93389 21.6408 3.96043 21.5968 3.97844C21.5528 3.99646 21.5057 4.00561 21.4582 4.00536H19.705C19.6093 4.00534 19.5176 3.96732 19.4499 3.89966C19.3823 3.832 19.3442 3.74025 19.3442 3.64457ZM36.8685 3.64457C36.8686 3.54889 36.9066 3.45714 36.9742 3.38949C37.0419 3.32184 37.1336 3.28382 37.2293 3.28379H38.9816C39.0291 3.28354 39.0762 3.29269 39.1202 3.31071C39.1642 3.32873 39.2042 3.35527 39.2379 3.38879C39.2716 3.42232 39.2983 3.46218 39.3166 3.50607C39.3348 3.54997 39.3442 3.59704 39.3442 3.64458C39.3442 3.69212 39.3348 3.73919 39.3166 3.78308C39.2983 3.82698 39.2716 3.86684 39.2379 3.90036C39.2042 3.93389 39.1642 3.96043 39.1202 3.97844C39.0762 3.99646 39.0291 4.00561 38.9816 4.00536H37.2293C37.1336 4.00534 37.0419 3.96732 36.9742 3.89966C36.9066 3.83201 36.8686 3.74025 36.8685 3.64457ZM32.4874 3.64457C32.4875 3.54889 32.5255 3.45714 32.5932 3.38949C32.6608 3.32184 32.7526 3.28382 32.8482 3.28379H34.6005C34.648 3.28354 34.6951 3.29269 34.7391 3.31071C34.7831 3.32873 34.8231 3.35527 34.8568 3.38879C34.8905 3.42232 34.9173 3.46218 34.9355 3.50607C34.9538 3.54997 34.9632 3.59704 34.9632 3.64458C34.9632 3.69212 34.9538 3.73919 34.9355 3.78308C34.9173 3.82698 34.8905 3.86684 34.8568 3.90036C34.8231 3.93389 34.7831 3.96043 34.7391 3.97844C34.6951 3.99646 34.648 4.00561 34.6005 4.00536H32.8482C32.7526 4.00534 32.6608 3.96732 32.5932 3.89966C32.5255 3.83201 32.4875 3.74025 32.4874 3.64457ZM10.2513 14.5231L9.37569 16.0404C9.32784 16.1234 9.249 16.184 9.1565 16.2088C9.06399 16.2336 8.96541 16.2207 8.88243 16.1729C8.79945 16.125 8.73888 16.0462 8.71403 15.9537C8.68919 15.8612 8.70211 15.7626 8.74995 15.6796L9.6256 14.1623C9.67344 14.0793 9.75229 14.0187 9.84479 13.9939C9.9373 13.969 10.0359 13.982 10.1189 14.0298C10.2018 14.0776 10.2624 14.1565 10.2873 14.249C10.3121 14.3415 10.2992 14.4401 10.2513 14.5231ZM13.1301 8.09189L14.0067 6.57404C14.0545 6.49107 14.1334 6.43049 14.2259 6.40565C14.3184 6.3808 14.417 6.39373 14.4999 6.44157C14.5829 6.48941 14.6435 6.56826 14.6683 6.66077C14.6932 6.75327 14.6803 6.85186 14.6324 6.93483L13.7558 8.45266C13.724 8.50742 13.6783 8.55289 13.6234 8.58454C13.5685 8.61619 13.5063 8.63291 13.443 8.63305C13.3796 8.63325 13.3173 8.61655 13.2626 8.58466C13.2215 8.56102 13.1855 8.52951 13.1566 8.49195C13.1277 8.45438 13.1065 8.41149 13.0942 8.36573C13.0819 8.31997 13.0787 8.27223 13.0849 8.22524C13.091 8.17825 13.1064 8.13294 13.1301 8.09189ZM12.4423 10.7287L11.5658 12.2465C11.5339 12.3013 11.4882 12.3468 11.4334 12.3784C11.3785 12.4101 11.3162 12.4268 11.2529 12.4269C11.1895 12.4271 11.1272 12.4104 11.0725 12.3785C11.0314 12.3549 10.9954 12.3234 10.9665 12.2858C10.9376 12.2483 10.9164 12.2054 10.9041 12.1596C10.8918 12.1138 10.8887 12.0661 10.8948 12.0191C10.901 11.9721 10.9163 11.9268 10.94 11.8858L11.8166 10.3679C11.8645 10.285 11.9433 10.2244 12.0358 10.1995C12.1283 10.1747 12.2269 10.1876 12.3099 10.2355C12.3928 10.2833 12.4534 10.3621 12.4783 10.4546C12.5031 10.5471 12.4902 10.6457 12.4423 10.7287ZM4.36887 23.2678L5.24452 21.75C5.29236 21.667 5.3712 21.6065 5.46371 21.5816C5.55621 21.5568 5.6548 21.5697 5.73777 21.6175C5.82075 21.6654 5.88133 21.7442 5.90617 21.8367C5.93102 21.9292 5.9181 22.0278 5.87025 22.1108L4.99461 23.6286C4.94676 23.7116 4.86792 23.7722 4.77541 23.797C4.68291 23.8219 4.58433 23.8089 4.50135 23.7611C4.41837 23.7133 4.3578 23.6344 4.33295 23.5419C4.30811 23.4494 4.32103 23.3508 4.36887 23.2678ZM8.06127 18.3169L7.18467 19.8343C7.15281 19.889 7.10717 19.9345 7.05228 19.9662C6.99739 19.9978 6.93517 20.0145 6.87181 20.0147C6.80844 20.0149 6.74617 19.9982 6.69141 19.9663C6.65034 19.9426 6.61433 19.9111 6.58544 19.8736C6.55655 19.836 6.53534 19.7931 6.52304 19.7473C6.51074 19.7016 6.50758 19.6538 6.51373 19.6068C6.51989 19.5599 6.53525 19.5145 6.55894 19.4735L7.43553 17.9561C7.48337 17.8732 7.56222 17.8126 7.65472 17.7877C7.74723 17.7629 7.84581 17.7758 7.92879 17.8237C8.01177 17.8715 8.07234 17.9503 8.09718 18.0429C8.12203 18.1354 8.10911 18.2339 8.06127 18.3169ZM14.0067 46.5412L13.1311 45.0234C13.0836 44.9404 13.0709 44.842 13.0958 44.7497C13.1207 44.6574 13.1812 44.5788 13.2641 44.531C13.3469 44.4833 13.4453 44.4703 13.5376 44.495C13.63 44.5196 13.7088 44.5799 13.7568 44.6626L14.6325 46.1804C14.6803 46.2634 14.6932 46.362 14.6684 46.4545C14.6435 46.547 14.583 46.6258 14.5 46.6737C14.417 46.7215 14.3184 46.7344 14.2259 46.7096C14.1334 46.6848 14.0545 46.6242 14.0067 46.5412ZM12.4423 42.3861C12.466 42.4271 12.4814 42.4724 12.4875 42.5194C12.4937 42.5664 12.4905 42.6142 12.4782 42.6599C12.4659 42.7057 12.4447 42.7486 12.4158 42.7862C12.387 42.8237 12.3509 42.8552 12.3099 42.8789C12.2551 42.9108 12.1928 42.9275 12.1295 42.9273C12.0661 42.9271 12.0039 42.9104 11.949 42.8787C11.8941 42.8471 11.8485 42.8016 11.8166 42.7469L10.94 41.2295C10.8922 41.1465 10.8793 41.0479 10.9041 40.9554C10.9289 40.8629 10.9895 40.7841 11.0725 40.7363C11.1555 40.6884 11.2541 40.6755 11.3466 40.7003C11.4391 40.7252 11.5179 40.7858 11.5658 40.8687L12.4423 42.3861ZM8.06127 34.7984C8.08495 34.8394 8.10031 34.8847 8.10646 34.9317C8.11262 34.9787 8.10946 35.0264 8.09715 35.0722C8.08485 35.118 8.06365 35.1609 8.03476 35.1984C8.00587 35.236 7.96985 35.2675 7.92878 35.2911C7.87402 35.323 7.81175 35.3397 7.74838 35.3395C7.68502 35.3394 7.62281 35.3226 7.56792 35.291C7.51303 35.2594 7.46738 35.2139 7.43552 35.1591L6.55893 33.6413C6.53524 33.6002 6.51987 33.5549 6.51371 33.5078C6.50755 33.4608 6.51071 33.413 6.52301 33.3672C6.54785 33.2747 6.60843 33.1959 6.69141 33.148C6.77438 33.1002 6.87297 33.0873 6.96547 33.1121C7.05798 33.137 7.13682 33.1975 7.18467 33.2805L8.06127 34.7984ZM10.2513 38.5922C10.2992 38.6752 10.3121 38.7738 10.2873 38.8663C10.2624 38.9588 10.2018 39.0376 10.1189 39.0855C10.0359 39.1333 9.9373 39.1462 9.84479 39.1214C9.75229 39.0966 9.67344 39.036 9.6256 38.953L8.74995 37.4356C8.72626 37.3946 8.7109 37.3492 8.70473 37.3022C8.69857 37.2552 8.70173 37.2074 8.71403 37.1616C8.72633 37.1158 8.74754 37.0728 8.77643 37.0352C8.80532 36.9976 8.84134 36.9661 8.88243 36.9424C8.96541 36.8945 9.06399 36.8816 9.1565 36.9065C9.2023 36.9188 9.24523 36.94 9.28284 36.9689C9.32045 36.9978 9.352 37.0338 9.37569 37.0749L10.2513 38.5922ZM5.8712 31.0045C5.89488 31.0455 5.91024 31.0909 5.9164 31.1378C5.92256 31.1848 5.9194 31.2326 5.90709 31.2783C5.89479 31.3241 5.87359 31.367 5.8447 31.4046C5.81581 31.4421 5.7798 31.4736 5.73872 31.4973C5.68397 31.5292 5.62169 31.5459 5.55832 31.5457C5.49497 31.5455 5.43275 31.5288 5.37786 31.4971C5.32297 31.4655 5.27732 31.42 5.24546 31.3653L4.36887 29.8474C4.32103 29.7645 4.30811 29.6659 4.33295 29.5734C4.3578 29.4809 4.41837 29.402 4.50135 29.3542C4.58433 29.3063 4.68291 29.2934 4.77541 29.3183C4.86792 29.3431 4.94676 29.4037 4.99461 29.4867L5.8712 31.0045ZM39.3433 49.4707C39.3433 49.5664 39.3052 49.6581 39.2376 49.7258C39.1699 49.7934 39.0782 49.8315 38.9825 49.8315H37.2293C37.1818 49.8317 37.1347 49.8226 37.0907 49.8046C37.0467 49.7865 37.0067 49.76 36.973 49.7265C36.9393 49.693 36.9125 49.6531 36.8943 49.6092C36.876 49.5653 36.8666 49.5182 36.8666 49.4707C36.8666 49.4232 36.876 49.3761 36.8943 49.3322C36.9125 49.2883 36.9393 49.2484 36.973 49.2149C37.0067 49.1814 37.0467 49.1548 37.0907 49.1368C37.1347 49.1188 37.1818 49.1097 37.2293 49.1099H38.9825C39.0782 49.1099 39.1699 49.148 39.2376 49.2156C39.3052 49.2833 39.3433 49.375 39.3433 49.4707ZM34.9622 49.4707C34.9622 49.5664 34.9242 49.6581 34.8565 49.7258C34.7889 49.7934 34.6971 49.8315 34.6014 49.8315H32.8492C32.7538 49.831 32.6625 49.7927 32.5953 49.7251C32.528 49.6575 32.4903 49.5661 32.4903 49.4707C32.4903 49.3753 32.528 49.2839 32.5953 49.2162C32.6625 49.1486 32.7538 49.1104 32.8492 49.1099H34.6014C34.6971 49.1099 34.7889 49.148 34.8565 49.2156C34.9242 49.2833 34.9622 49.375 34.9622 49.4707ZM21.819 49.4707C21.8189 49.5664 21.7809 49.6581 21.7133 49.7258C21.6456 49.7934 21.5539 49.8315 21.4582 49.8315H19.7059C19.6584 49.8317 19.6113 49.8226 19.5673 49.8046C19.5233 49.7865 19.4833 49.76 19.4496 49.7265C19.4159 49.693 19.3892 49.6531 19.3709 49.6092C19.3527 49.5653 19.3433 49.5182 19.3433 49.4707C19.3433 49.4232 19.3527 49.3761 19.3709 49.3322C19.3892 49.2883 19.4159 49.2484 19.4496 49.2149C19.4833 49.1814 19.5233 49.1548 19.5673 49.1368C19.6113 49.1188 19.6584 49.1097 19.7059 49.1099H21.4582C21.5539 49.1099 21.6456 49.148 21.7133 49.2156C21.7809 49.2833 21.8189 49.375 21.819 49.4707ZM30.5811 49.4707C30.5811 49.5664 30.5431 49.6581 30.4754 49.7258C30.4078 49.7934 30.316 49.8315 30.2203 49.8315H28.4681C28.3727 49.831 28.2815 49.7927 28.2142 49.7251C28.147 49.6575 28.1092 49.5661 28.1092 49.4707C28.1092 49.3753 28.147 49.2839 28.2142 49.2162C28.2815 49.1486 28.3727 49.1104 28.4681 49.1099H30.2203C30.316 49.1099 30.4078 49.1479 30.4755 49.2156C30.5431 49.2833 30.5811 49.375 30.5811 49.4707ZM26.2001 49.4707C26.2 49.5664 26.162 49.6581 26.0944 49.7258C26.0267 49.7934 25.9349 49.8315 25.8393 49.8315H24.087C24.0395 49.8317 23.9924 49.8226 23.9484 49.8046C23.9044 49.7865 23.8644 49.76 23.8307 49.7265C23.797 49.693 23.7702 49.6531 23.752 49.6092C23.7337 49.5653 23.7243 49.5182 23.7243 49.4707C23.7243 49.4232 23.7337 49.3761 23.752 49.3322C23.7702 49.2883 23.797 49.2484 23.8307 49.2149C23.8644 49.1814 23.9044 49.1548 23.9484 49.1368C23.9924 49.1188 24.0395 49.1097 24.087 49.1099H25.8393C25.9349 49.1099 26.0267 49.148 26.0944 49.2156C26.162 49.2833 26.2 49.375 26.2001 49.4707ZM45.5574 45.0234L44.6808 46.5412C44.649 46.596 44.6033 46.6415 44.5484 46.6731C44.4935 46.7048 44.4313 46.7215 44.3679 46.7216C44.3046 46.7218 44.2423 46.7051 44.1876 46.6732C44.1465 46.6496 44.1105 46.6181 44.0816 46.5805C44.0527 46.543 44.0315 46.5001 44.0192 46.4543C44.0069 46.4085 44.0037 46.3608 44.0099 46.3138C44.016 46.2668 44.0314 46.2215 44.0551 46.1804L44.9317 44.6626C44.9795 44.5796 45.0584 44.5191 45.1509 44.4942C45.2434 44.4694 45.342 44.4823 45.4249 44.5301C45.5079 44.578 45.5685 44.6568 45.5933 44.7493C45.6182 44.8418 45.6053 44.9404 45.5574 45.0234ZM49.9376 37.4356L49.0619 38.953C49.0141 39.036 48.9352 39.0966 48.8427 39.1214C48.7502 39.1462 48.6516 39.1333 48.5686 39.0855C48.4857 39.0376 48.4251 38.9588 48.4002 38.8663C48.3754 38.7738 48.3883 38.6752 48.4362 38.5922L49.3118 37.0749C49.3597 36.9919 49.4385 36.9313 49.531 36.9065C49.6235 36.8816 49.7221 36.8945 49.8051 36.9424C49.8881 36.9902 49.9486 37.0691 49.9735 37.1616C49.9983 37.2541 49.9854 37.3527 49.9376 37.4356ZM52.1286 33.6418L51.252 35.1591C51.2201 35.2139 51.1745 35.2594 51.1196 35.291C51.0647 35.3227 51.0025 35.3394 50.9391 35.3395C50.8757 35.3397 50.8135 35.323 50.7587 35.2911C50.7176 35.2675 50.6816 35.236 50.6527 35.1984C50.6239 35.1609 50.6027 35.118 50.5904 35.0722C50.578 35.0264 50.5749 34.9787 50.581 34.9317C50.5872 34.8847 50.6026 34.8394 50.6262 34.7983L51.5028 33.281C51.5507 33.198 51.6295 33.1374 51.722 33.1126C51.8145 33.0877 51.9131 33.1007 51.9961 33.1485C52.0791 33.1963 52.1396 33.2752 52.1645 33.3677C52.1893 33.4602 52.1764 33.5588 52.1286 33.6418ZM47.7475 41.2295L46.8709 42.7473C46.839 42.8021 46.7934 42.8476 46.7385 42.8792C46.6836 42.9109 46.6214 42.9276 46.558 42.9277C46.4947 42.9279 46.4324 42.9112 46.3776 42.8793C46.3366 42.8557 46.3005 42.8242 46.2717 42.7866C46.2428 42.7491 46.2216 42.7062 46.2093 42.6604C46.197 42.6146 46.1938 42.5669 46.2 42.5199C46.2061 42.4729 46.2215 42.4276 46.2452 42.3866L47.1217 40.8687C47.1454 40.8276 47.177 40.7916 47.2146 40.7627C47.2522 40.7338 47.2951 40.7126 47.3409 40.7003C47.3867 40.688 47.4345 40.6849 47.4815 40.691C47.5286 40.6972 47.5739 40.7126 47.615 40.7363C47.6561 40.7599 47.6921 40.7915 47.721 40.8291C47.7499 40.8667 47.7711 40.9096 47.7834 40.9554C47.7957 41.0012 47.7989 41.049 47.7927 41.0961C47.7865 41.1431 47.7712 41.1884 47.7475 41.2295ZM54.3186 29.8474L53.443 31.3653C53.3951 31.4482 53.3163 31.5088 53.2238 31.5337C53.1313 31.5585 53.0327 31.5456 52.9497 31.4977C52.8667 31.4499 52.8062 31.3711 52.7813 31.2786C52.7565 31.1861 52.7694 31.0875 52.8172 31.0045L53.6929 29.4867C53.7407 29.4037 53.8196 29.3431 53.9121 29.3183C54.0046 29.2934 54.1032 29.3063 54.1862 29.3542C54.2691 29.402 54.3297 29.4809 54.3546 29.5734C54.3794 29.6659 54.3665 29.7645 54.3186 29.8474ZM44.6808 6.57404L45.5565 8.09187C45.604 8.17483 45.6167 8.27325 45.5917 8.36554C45.5668 8.45784 45.5063 8.53649 45.4235 8.58424C45.3407 8.632 45.2423 8.64496 45.1499 8.6203C45.0576 8.59563 44.9787 8.53535 44.9307 8.45266L44.0551 6.93483C44.0072 6.85186 43.9943 6.75327 44.0192 6.66077C44.044 6.56826 44.1046 6.48941 44.1876 6.44157C44.2705 6.39373 44.3691 6.3808 44.4616 6.40565C44.5541 6.43049 44.633 6.49107 44.6808 6.57404ZM52.8163 22.1108C52.7685 22.0278 52.7555 21.9292 52.7804 21.8367C52.8052 21.7442 52.8658 21.6654 52.9488 21.6175C53.0318 21.5697 53.1303 21.5567 53.2229 21.5816C53.3154 21.6064 53.3942 21.667 53.442 21.75L54.3186 23.2678C54.3423 23.3089 54.3577 23.3542 54.3638 23.4012C54.37 23.4482 54.3668 23.4959 54.3545 23.5417C54.3422 23.5874 54.321 23.6303 54.2921 23.6679C54.2632 23.7055 54.2272 23.737 54.1862 23.7606C54.1314 23.7925 54.0691 23.8092 54.0058 23.809C53.9424 23.8089 53.8802 23.7921 53.8253 23.7605C53.7704 23.7288 53.7248 23.6834 53.6929 23.6286L52.8163 22.1108ZM52.1286 19.4739C52.1522 19.515 52.1676 19.5603 52.1738 19.6073C52.1799 19.6543 52.1768 19.702 52.1645 19.7478C52.1522 19.7936 52.131 19.8365 52.1021 19.874C52.0732 19.9116 52.0372 19.9431 51.9961 19.9667C51.9413 19.9986 51.8791 20.0153 51.8157 20.0151C51.7523 20.015 51.6901 19.9983 51.6352 19.9666C51.5803 19.935 51.5347 19.8895 51.5028 19.8347L50.6262 18.3169C50.6025 18.2758 50.5872 18.2305 50.581 18.1834C50.5749 18.1364 50.578 18.0886 50.5903 18.0428C50.6026 17.997 50.6238 17.9541 50.6527 17.9165C50.6816 17.8789 50.7176 17.8473 50.7587 17.8236C50.8417 17.7758 50.9403 17.7629 51.0328 17.7877C51.0786 17.8 51.1215 17.8212 51.1591 17.8501C51.1967 17.879 51.2283 17.915 51.252 17.9561L52.1286 19.4739ZM47.7475 11.8858C47.7712 11.9268 47.7865 11.9721 47.7927 12.0191C47.7988 12.0661 47.7957 12.1138 47.7834 12.1596C47.7711 12.2054 47.7499 12.2483 47.721 12.2858C47.6921 12.3234 47.6561 12.3549 47.615 12.3785C47.5603 12.4104 47.498 12.4271 47.4346 12.4269C47.3713 12.4268 47.309 12.4101 47.2542 12.3784C47.1993 12.3468 47.1536 12.3013 47.1217 12.2465L46.2452 10.7292C46.1973 10.6462 46.1844 10.5476 46.2092 10.4551C46.2341 10.3626 46.2947 10.2838 46.3776 10.2359C46.4606 10.1881 46.5592 10.1752 46.6517 10.2C46.7442 10.2248 46.823 10.2854 46.8709 10.3684L47.7475 11.8858ZM49.9376 15.6796C49.9854 15.7626 49.9983 15.8612 49.9735 15.9537C49.9486 16.0462 49.8881 16.125 49.8051 16.1729C49.7221 16.2207 49.6235 16.2336 49.531 16.2088C49.4385 16.184 49.3597 16.1234 49.3118 16.0404L48.4362 14.5231C48.3883 14.4401 48.3754 14.3415 48.4002 14.249C48.4251 14.1565 48.4857 14.0776 48.5686 14.0298C48.6516 13.982 48.7502 13.969 48.8427 13.9939C48.9352 14.0187 49.0141 14.0793 49.0619 14.1623L49.9376 15.6796ZM2.88627 29.4439C2.31542 29.4439 1.75739 29.2746 1.28275 28.9575C0.808101 28.6403 0.438161 28.1896 0.219706 27.6622C0.00125067 27.1348 -0.0559073 26.5544 0.0554602 25.9946C0.166828 25.4347 0.441718 24.9204 0.845371 24.5167C1.24902 24.1131 1.76331 23.8382 2.32319 23.7268C2.88307 23.6155 3.4634 23.6726 3.9908 23.8911C4.5182 24.1095 4.96897 24.4795 5.28612 24.9541C5.60327 25.4288 5.77254 25.9868 5.77254 26.5576C5.77171 27.3229 5.46735 28.0565 4.92625 28.5976C4.38515 29.1387 3.6515 29.4431 2.88627 29.4439ZM19.0144 49.4707C19.0144 50.0415 18.8451 50.5996 18.528 51.0742C18.2108 51.5489 17.76 51.9188 17.2327 52.1373C16.7053 52.3557 16.1249 52.4129 15.565 52.3015C15.0052 52.1901 14.4909 51.9152 14.0872 51.5116C13.6836 51.1079 13.4087 50.5937 13.2973 50.0338C13.1859 49.4739 13.2431 48.8936 13.4616 48.3662C13.68 47.8388 14.05 47.388 14.5246 47.0709C14.9992 46.7537 15.5573 46.5844 16.1281 46.5844C16.8934 46.5853 17.627 46.8896 18.1681 47.4307C18.7092 47.9718 19.0136 48.7055 19.0144 49.4707ZM13.2259 3.64457C13.2259 3.07372 13.3952 2.51569 13.7123 2.04105C14.0295 1.5664 14.4803 1.19646 15.0077 0.978008C15.5351 0.759552 16.1154 0.702394 16.6753 0.81376C17.2352 0.925127 17.7494 1.20002 18.1531 1.60367C18.5567 2.00732 18.8316 2.5216 18.943 3.08148C19.0544 3.64136 18.9972 4.2217 18.7788 4.74909C18.5603 5.27649 18.1904 5.72727 17.7157 6.04442C17.2411 6.36156 16.6831 6.53084 16.1122 6.53085C15.347 6.53001 14.6133 6.22566 14.0722 5.68456C13.5311 5.14346 13.2268 4.40981 13.2259 3.64457ZM45.4785 49.4707C45.4785 50.0415 45.3092 50.5996 44.9921 51.0742C44.6749 51.5489 44.2242 51.9188 43.6968 52.1373C43.1694 52.3557 42.589 52.4129 42.0291 52.3015C41.4693 52.1901 40.955 51.9153 40.5513 51.5116C40.1477 51.108 39.8728 50.5937 39.7614 50.0338C39.65 49.4739 39.7072 48.8936 39.9257 48.3662C40.1441 47.8388 40.514 47.388 40.9887 47.0709C41.4633 46.7537 42.0214 46.5844 42.5922 46.5844C43.3574 46.5853 44.0911 46.8896 44.6322 47.4307C45.1733 47.9718 45.4777 48.7055 45.4785 49.4707ZM39.69 3.64457C39.69 3.07372 39.8593 2.5157 40.1764 2.04105C40.4935 1.56641 40.9443 1.19647 41.4717 0.97801C41.9991 0.759554 42.5794 0.702394 43.1393 0.813758C43.6992 0.925122 44.2135 1.20001 44.6171 1.60366C45.0208 2.00731 45.2957 2.52159 45.4071 3.08147C45.5184 3.64134 45.4613 4.22168 45.2428 4.74907C45.0244 5.27647 44.6544 5.72725 44.1798 6.0444C43.7052 6.36155 43.1471 6.53084 42.5763 6.53085C41.8111 6.53002 41.0774 6.22567 40.5363 5.68457C39.9952 5.14347 39.6908 4.40981 39.69 3.64457ZM58.6875 26.5576C58.6875 27.1285 58.5182 27.6865 58.2011 28.1612C57.8839 28.6358 57.4332 29.0057 56.9058 29.2242C56.3784 29.4427 55.798 29.4998 55.2381 29.3885C54.6783 29.2771 54.164 29.0022 53.7603 28.5985C53.3567 28.1949 53.0818 27.6806 52.9704 27.1207C52.8591 26.5608 52.9162 25.9805 53.1347 25.4531C53.3531 24.9257 53.7231 24.4749 54.1977 24.1578C54.6723 23.8406 55.2304 23.6714 55.8012 23.6714C56.5665 23.6722 57.3001 23.9766 57.8412 24.5177C58.3823 25.0588 58.6867 25.7924 58.6875 26.5576Z" fill="#01DA63" fill-opacity="0.9"/>
<path fill-rule="evenodd" clip-rule="evenodd" d="M43.2327 32.3341C43.2798 31.8326 43.2614 28.6026 43.2537 27.2006C43.2517 26.9632 43.2504 26.7526 43.2501 26.576C41.8452 26.2736 41.3874 25.9114 40.983 25.5069C40.9298 25.4514 40.8736 25.3989 40.8148 25.3494C40.6437 25.2118 40.3314 25.0842 39.233 25.0842C37.6541 25.0842 37.5191 25.2675 37.4466 25.3661C37.4292 25.3891 37.4144 25.4131 37.3957 25.4378C37.0995 25.8672 36.7219 26.2518 35.2152 26.576L35.2123 27.2022C35.2039 28.6042 35.1852 31.8339 35.2326 32.3354C35.936 33.8474 37.2813 35.0717 39.233 35.977C41.184 35.0717 42.529 33.8474 43.2327 32.3354V32.3341ZM34.3394 32.6691C35.1234 34.3994 36.6094 35.7875 38.7571 36.7994V38.2074C38.7569 38.3471 38.7009 38.481 38.6014 38.5797C38.5019 38.6785 38.367 38.734 38.2264 38.7341H19.5301C19.3895 38.7339 19.2547 38.6784 19.1553 38.5796C19.0559 38.4808 19.0001 38.347 19 38.2074V14.5274C19 14.3877 19.0558 14.2537 19.1552 14.1548C19.2546 14.0559 19.3894 14.0003 19.5301 14H30.6951V21.5306C30.6951 21.5928 30.7074 21.6544 30.7314 21.7119C30.7554 21.7694 30.7905 21.8217 30.8348 21.8657C30.8791 21.9097 30.9317 21.9446 30.9896 21.9684C31.0475 21.9922 31.1096 22.0045 31.1723 22.0045H38.7558V24.143C37.3899 24.1811 36.979 24.3968 36.6771 24.8061C36.6539 24.8381 36.632 24.8701 36.6094 24.9021C36.4561 25.1235 36.2469 25.4269 34.6523 25.7222C34.5428 25.7425 34.4439 25.8001 34.3727 25.8851C34.3015 25.9702 34.2625 26.0772 34.2624 26.1878C34.2624 26.3798 34.2608 26.7398 34.2582 27.1958C34.2282 32.4272 34.2672 32.5133 34.3381 32.6694L34.3394 32.6691ZM31.9005 29.2307C31.9642 29.2324 32.0276 29.2213 32.0869 29.1983C32.1462 29.1752 32.2003 29.1406 32.2459 29.0964C32.2915 29.0522 32.3278 28.9995 32.3526 28.9412C32.3773 28.8829 32.3901 28.8202 32.3901 28.757C32.3901 28.6937 32.3773 28.6311 32.3526 28.5728C32.3278 28.5145 32.2915 28.4617 32.2459 28.4175C32.2003 28.3734 32.1462 28.3387 32.0869 28.3157C32.0276 28.2926 31.9642 28.2816 31.9005 28.2832H22.1049C21.9806 28.2864 21.8624 28.3377 21.7755 28.4262C21.6887 28.5147 21.6401 28.6334 21.6401 28.757C21.6401 28.8805 21.6887 28.9992 21.7755 29.0877C21.8624 29.1762 21.9806 29.2275 22.1049 29.2307H31.9005ZM31.6749 26.8403C31.7386 26.842 31.802 26.8309 31.8613 26.8079C31.9207 26.7848 31.9747 26.7502 32.0204 26.706C32.066 26.6618 32.1023 26.6091 32.127 26.5508C32.1518 26.4925 32.1645 26.4298 32.1645 26.3666C32.1645 26.3033 32.1518 26.2407 32.127 26.1824C32.1023 26.1241 32.066 26.0713 32.0204 26.0271C31.9747 25.983 31.9207 25.9483 31.8613 25.9253C31.802 25.9022 31.7386 25.8912 31.6749 25.8928H22.1049C21.9806 25.896 21.8624 25.9473 21.7755 26.0358C21.6887 26.1243 21.6401 26.243 21.6401 26.3666C21.6401 26.4901 21.6887 26.6088 21.7755 26.6973C21.8624 26.7858 21.9806 26.8371 22.1049 26.8403H31.6749ZM31.8431 24.4502C31.9068 24.4519 31.9702 24.4408 32.0295 24.4178C32.0889 24.3947 32.1429 24.3601 32.1886 24.3159C32.2342 24.2718 32.2705 24.219 32.2952 24.1607C32.32 24.1024 32.3327 24.0398 32.3327 23.9765C32.3327 23.9132 32.32 23.8506 32.2952 23.7923C32.2705 23.734 32.2342 23.6812 32.1886 23.637C32.1429 23.5929 32.0889 23.5583 32.0295 23.5352C31.9702 23.5121 31.9068 23.5011 31.8431 23.5027H22.1049C21.9806 23.5059 21.8624 23.5573 21.7755 23.6458C21.6887 23.7342 21.6401 23.8529 21.6401 23.9765C21.6401 24.1 21.6887 24.2187 21.7755 24.3072C21.8624 24.3957 21.9806 24.447 22.1049 24.4502H31.8431ZM26.4147 22.0598C26.5411 22.0598 26.6624 22.0099 26.7519 21.9211C26.8413 21.8323 26.8915 21.7118 26.8915 21.5862C26.8915 21.4606 26.8413 21.3402 26.7519 21.2514C26.6624 21.1625 26.5411 21.1126 26.4147 21.1126H22.1049C21.9785 21.1126 21.8572 21.1625 21.7677 21.2514C21.6783 21.3402 21.628 21.4606 21.628 21.5862C21.628 21.7118 21.6783 21.8323 21.7677 21.9211C21.8572 22.0099 21.9785 22.0598 22.1049 22.0598H26.4147ZM31.6495 21.0582H38.081L31.6495 14.6701V21.0582Z" fill="#05C95D"/>
<path d="M40.3181 30.5046L39.749 30.9152C39.5309 31.0682 39.429 31.3337 39.4484 31.5979C39.4045 32.2701 38.4689 32.1786 38.5348 31.5064C38.5348 30.9728 38.7903 30.4706 39.22 30.1606L39.7891 29.75C40.353 29.3472 40.0652 28.4317 39.3736 28.4343H39.1335C38.7387 28.4343 38.4173 28.7586 38.4173 29.1588C38.4496 29.457 38.2702 29.7251 37.9605 29.729C37.6508 29.7251 37.4715 29.457 37.5037 29.1588C37.5076 28.1309 38.3838 27.4141 39.3736 27.5083C40.9518 27.5122 41.6022 29.5773 40.3182 30.5045L40.3181 30.5046ZM38.9916 32.4074C38.3877 32.4271 38.3877 33.3151 38.9916 33.3333C39.5955 33.315 39.5955 32.427 38.9916 32.4074Z" fill="#292C2A"/>
<path d="M27.1609 36.7087C26.7498 36.8355 25.9773 37 24.7491 37C23.5228 37 22.7483 36.8355 22.3375 36.7087C22.1174 36.6419 21.9707 36.4258 22.005 36.1977C22.1516 35.2139 22.7451 34.391 23.5519 33.9744C23.8691 34.2625 24.2888 34.4373 24.7494 34.4373C25.208 34.4373 25.6294 34.2625 25.9466 33.9744C26.755 34.3909 27.3485 35.2138 27.4951 36.1977C27.5292 36.4258 27.3808 36.6416 27.1609 36.7087ZM24.7495 31C23.8525 31 23.1251 31.731 23.1251 32.6327C23.1251 33.5343 23.8525 34.2653 24.7495 34.2653C25.6466 34.2653 26.3739 33.5343 26.3739 32.6327C26.3739 31.731 25.6466 31 24.7495 31Z" fill="#292C2A"/>
</svg>
