<svg width="39" height="50" viewBox="0 0 39 50" fill="none" xmlns="http://www.w3.org/2000/svg">
<path d="M10.7315 9.21098L11.2938 8.69007L11.2938 8.69008L11.2962 8.68787C13.4679 6.64976 16.4181 5.5 19.5 5.5C22.5819 5.5 25.5321 6.64976 27.7038 8.68788L27.7062 8.69007L28.2685 9.21098L27.1042 10.3128L26.4938 9.73919C25.5726 8.87356 24.4807 8.18842 23.2811 7.72148C22.0815 7.25456 20.7968 7.01457 19.5 7.01457C18.2032 7.01457 16.9185 7.25456 15.7189 7.72148C14.5193 8.18842 13.4274 8.87355 12.5063 9.73917C12.5063 9.73918 12.5063 9.73918 12.5063 9.73919L11.8958 10.3128L10.7315 9.21098Z" fill="#01DA63" fill-opacity="0.9" stroke="#08AC52"/>
<path d="M13.5892 2.87202C11.7137 3.54529 10.0054 4.53356 8.56351 5.78331C8.56348 5.78334 8.56345 5.78336 8.56342 5.78339L7.92273 6.33846L6.7636 5.33424L7.29548 4.87344C7.29551 4.87341 7.29555 4.87338 7.29558 4.87336C10.5224 2.07931 14.9113 0.5 19.5 0.5C24.0887 0.5 28.4777 2.07935 31.7045 4.87344L32.2364 5.33424L31.0773 6.33846L30.4366 5.78339C28.9947 4.5336 27.2864 3.5453 25.4108 2.87202C23.5352 2.19874 21.5269 1.85282 19.5 1.85282C17.4731 1.85282 15.4648 2.19874 13.5892 2.87202Z" fill="#01DA63" fill-opacity="0.9" stroke="#08AC52"/>
<path d="M14.3 23.7H14.8V23.2V20.4V19.9H14.3H3.9H3.4V20.4V23.2V23.7H3.9H14.3ZM38.5 25.5H0.5V12.5H38.5V25.5ZM31.024 15.6352C31.2363 15.8639 31.5325 16 31.85 16C32.1675 16 32.4637 15.8639 32.676 15.6352C32.8872 15.4078 33 15.1068 33 14.8C33 14.4932 32.8872 14.1922 32.676 13.9648C32.4637 13.7361 32.1675 13.6 31.85 13.6C31.5325 13.6 31.2363 13.7361 31.024 13.9648C30.8128 14.1922 30.7 14.4932 30.7 14.8C30.7 15.1068 30.8128 15.4078 31.024 15.6352ZM33.624 15.6352C33.8363 15.8639 34.1325 16 34.45 16C34.7675 16 35.0637 15.8639 35.276 15.6352C35.3329 15.5739 35.3827 15.5073 35.425 15.4367C35.4673 15.5073 35.5171 15.5739 35.574 15.6352C35.7863 15.8639 36.0825 16 36.4 16C36.7175 16 37.0137 15.8639 37.226 15.6352C37.4372 15.4078 37.55 15.1068 37.55 14.8C37.55 14.4932 37.4372 14.1922 37.226 13.9648C37.0137 13.7361 36.7175 13.6 36.4 13.6C36.0825 13.6 35.7863 13.7361 35.574 13.9648C35.5171 14.0261 35.4673 14.0927 35.425 14.1633C35.3827 14.0927 35.3329 14.0261 35.276 13.9648C35.0637 13.7361 34.7675 13.6 34.45 13.6C34.1325 13.6 33.8363 13.7361 33.624 13.9648C33.4128 14.1922 33.3 14.4932 33.3 14.8C33.3 15.1068 33.4128 15.4078 33.624 15.6352Z" fill="#01DA63" fill-opacity="0.9" stroke="#08AC52"/>
<path d="M18.7 41.5056V41.0056H18.2H0.5V27.5H38.5V41.0056H20.8H20.3V41.5056V43.6873V44.0104L20.5946 44.1432C21.2279 44.4286 21.7361 44.9431 22.019 45.589L22.1501 45.8885H22.477H33.3V47.5259H22.477H22.1483L22.018 47.8277C21.8027 48.3263 21.4493 48.7494 21.002 49.046C20.5549 49.3425 20.0329 49.5 19.5 49.5C18.9671 49.5 18.4451 49.3425 17.998 49.046C17.5507 48.7494 17.1973 48.3263 16.982 47.8277L16.8517 47.5259H16.523H5.7V45.8885H16.523H16.8499L16.981 45.589C17.2639 44.9431 17.7721 44.4286 18.4054 44.1432L18.7 44.0104V43.6873V41.5056ZM3.9 34.4122H3.4V34.9122V37.5496V38.0496H3.9H14.3H14.8V37.5496V34.9122V34.4122H14.3H3.9ZM37.2157 29.4795C37.0006 29.2613 36.7073 29.1374 36.4 29.1374C36.0927 29.1374 35.7994 29.2613 35.5843 29.4795C35.5233 29.5413 35.4701 29.6093 35.425 29.6819C35.3799 29.6093 35.3267 29.5413 35.2657 29.4795C35.0506 29.2613 34.7573 29.1374 34.45 29.1374C34.1427 29.1374 33.8494 29.2613 33.6343 29.4795C33.4194 29.6974 33.3 29.9915 33.3 30.2967C33.3 30.6019 33.4195 30.896 33.6343 31.114C33.8494 31.3322 34.1427 31.4561 34.45 31.4561C34.7573 31.4561 35.0506 31.3322 35.2657 31.114C35.3267 31.0521 35.3799 30.9842 35.425 30.9115C35.4701 30.9842 35.5233 31.0521 35.5843 31.114C35.7994 31.3322 36.0927 31.4561 36.4 31.4561C36.7073 31.4561 37.0006 31.3322 37.2157 31.114C37.4305 30.896 37.55 30.6019 37.55 30.2967C37.55 29.9915 37.4305 29.6974 37.2157 29.4795ZM32.6657 29.4795C32.4506 29.2613 32.1573 29.1374 31.85 29.1374C31.5427 29.1374 31.2494 29.2613 31.0343 29.4795C30.8194 29.6974 30.7 29.9915 30.7 30.2967C30.7 30.6019 30.8195 30.896 31.0343 31.114C31.2494 31.3322 31.5427 31.4561 31.85 31.4561C32.1573 31.4561 32.4506 31.3322 32.6657 31.114C32.8805 30.896 33 30.6019 33 30.2967C33 29.9915 32.8806 29.6974 32.6657 29.4795Z" fill="#01DA63" fill-opacity="0.9" stroke="#08AC52"/>
<path d="M23.5 13.25C23.5 14.7972 21.8334 16.25 19.5 16.25C17.1666 16.25 15.5 14.7972 15.5 13.25C15.5 11.7028 17.1666 10.25 19.5 10.25C21.8334 10.25 23.5 11.7028 23.5 13.25Z" fill="#04C85D" stroke="#08AC52"/>
</svg>
