<svg width="36" height="30" viewBox="0 0 36 30" fill="none" xmlns="http://www.w3.org/2000/svg">
<path d="M35.1316 1.95986V8.03115C35.1316 8.78055 34.5257 9.38944 33.78 9.38944H1.40931C0.663547 9.38944 0.0576172 8.78055 0.0576172 8.03115V1.95986C0.0576172 1.21046 0.663547 0.601573 1.40931 0.601573H33.78C34.5257 0.598646 35.1316 1.21046 35.1316 1.95986ZM32.1981 4.9955C32.1981 3.8275 31.2543 2.87904 30.0919 2.87904C28.9296 2.87904 27.9858 3.8275 27.9858 4.9955C27.9858 6.16351 28.9296 7.11197 30.0919 7.11197C31.2543 7.11197 32.1981 6.16058 32.1981 4.9955ZM26.5991 4.9955C26.5991 3.8275 25.6553 2.87904 24.4929 2.87904C23.3306 2.87904 22.3867 3.8275 22.3867 4.9955C22.3867 6.16351 23.3306 7.11197 24.4929 7.11197C25.6523 7.11197 26.5991 6.16058 26.5991 4.9955ZM20.9972 4.9955C20.9972 3.8275 20.0533 2.87904 18.891 2.87904C17.7286 2.87904 16.7848 3.8275 16.7848 4.9955C16.7848 6.16351 17.7286 7.11197 18.891 7.11197C20.0533 7.11197 20.9972 6.16058 20.9972 4.9955ZM14.3873 3.73968C14.3873 3.46743 14.1659 3.24496 13.895 3.24496H3.48054C3.20962 3.24496 2.98822 3.46451 2.98822 3.73968C2.98822 4.01192 3.20962 4.2344 3.48054 4.2344H13.895C14.1659 4.23147 14.3873 4.01192 14.3873 3.73968ZM14.3873 6.25133C14.3873 5.97909 14.1659 5.75661 13.895 5.75661H3.48054C3.20962 5.75661 2.98822 5.97616 2.98822 6.25133C2.98822 6.52357 3.20962 6.74605 3.48054 6.74605H13.895C14.1659 6.74312 14.3873 6.52357 14.3873 6.25133Z" fill="#01DA63" fill-opacity="0.9"/>
<path d="M30.0932 6.12538C30.7142 6.12538 31.2177 5.61948 31.2177 4.99543C31.2177 4.37137 30.7142 3.86548 30.0932 3.86548C29.4722 3.86548 28.9688 4.37137 28.9688 4.99543C28.9688 5.61948 29.4722 6.12538 30.0932 6.12538Z" fill="#01DA63" fill-opacity="0.9"/>
<path d="M24.4946 6.1227C25.114 6.1227 25.6162 5.61812 25.6162 4.99568C25.6162 4.37324 25.114 3.86865 24.4946 3.86865C23.8752 3.86865 23.373 4.37324 23.373 4.99568C23.373 5.61812 23.8752 6.1227 24.4946 6.1227Z" fill="#01DA63" fill-opacity="0.9"/>
<path d="M18.8921 6.1227C19.5115 6.1227 20.0136 5.61812 20.0136 4.99568C20.0136 4.37324 19.5115 3.86865 18.8921 3.86865C18.2726 3.86865 17.7705 4.37324 17.7705 4.99568C17.7705 5.61812 18.2726 6.1227 18.8921 6.1227Z" fill="#01DA63" fill-opacity="0.9"/>
<path d="M35.1316 11.786V17.8573C35.1316 18.6067 34.5257 19.2156 33.78 19.2156H1.40931C0.663547 19.2156 0.0576172 18.6067 0.0576172 17.8573V11.786C0.0576172 11.0366 0.663547 10.4277 1.40931 10.4277H33.78C34.5257 10.4248 35.1316 11.0366 35.1316 11.786ZM32.1981 14.8217C32.1981 13.6537 31.2543 12.7052 30.0919 12.7052C28.9296 12.7052 27.9858 13.6537 27.9858 14.8217C27.9858 15.9897 28.9296 16.9381 30.0919 16.9381C31.2543 16.9381 32.1981 15.9868 32.1981 14.8217ZM26.5991 14.8217C26.5991 13.6537 25.6553 12.7052 24.4929 12.7052C23.3306 12.7052 22.3867 13.6537 22.3867 14.8217C22.3867 15.9897 23.3306 16.9381 24.4929 16.9381C25.6523 16.9381 26.5991 15.9868 26.5991 14.8217ZM20.9972 14.8217C20.9972 13.6537 20.0533 12.7052 18.891 12.7052C17.7286 12.7052 16.7848 13.6537 16.7848 14.8217C16.7848 15.9897 17.7286 16.9381 18.891 16.9381C20.0533 16.9381 20.9972 15.9868 20.9972 14.8217ZM14.3873 13.5658C14.3873 13.2936 14.1659 13.0711 13.895 13.0711H3.48054C3.20962 13.0711 2.98822 13.2907 2.98822 13.5658C2.98822 13.8381 3.20962 14.0606 3.48054 14.0606H13.895C14.1659 14.0576 14.3873 13.8381 14.3873 13.5658ZM14.3873 16.0775C14.3873 15.8053 14.1659 15.5828 13.895 15.5828H3.48054C3.20962 15.5828 2.98822 15.8023 2.98822 16.0775C2.98822 16.3497 3.20962 16.5722 3.48054 16.5722H13.895C14.1659 16.5693 14.3873 16.3497 14.3873 16.0775Z" fill="#01DA63" fill-opacity="0.9"/>
<path d="M30.0932 15.9516C30.7142 15.9516 31.2177 15.4457 31.2177 14.8216C31.2177 14.1975 30.7142 13.6917 30.0932 13.6917C29.4722 13.6917 28.9688 14.1975 28.9688 14.8216C28.9688 15.4457 29.4722 15.9516 30.0932 15.9516Z" fill="#01DA63" fill-opacity="0.9"/>
<path d="M24.4946 15.9489C25.114 15.9489 25.6162 15.4443 25.6162 14.8218C25.6162 14.1994 25.114 13.6948 24.4946 13.6948C23.8752 13.6948 23.373 14.1994 23.373 14.8218C23.373 15.4443 23.8752 15.9489 24.4946 15.9489Z" fill="#01DA63" fill-opacity="0.9"/>
<path d="M18.8921 15.9489C19.5115 15.9489 20.0136 15.4443 20.0136 14.8218C20.0136 14.1994 19.5115 13.6948 18.8921 13.6948C18.2726 13.6948 17.7705 14.1994 17.7705 14.8218C17.7705 15.4443 18.2726 15.9489 18.8921 15.9489Z" fill="#01DA63" fill-opacity="0.9"/>
<path d="M35.1316 21.6124V27.6837C35.1316 28.4331 34.5257 29.042 33.78 29.042H1.40931C0.663547 29.042 0.0576172 28.4331 0.0576172 27.6837V21.6124C0.0576172 20.863 0.663547 20.2542 1.40931 20.2542H33.78C34.5257 20.2512 35.1316 20.863 35.1316 21.6124ZM32.1981 24.6481C32.1981 23.4801 31.2543 22.5316 30.0919 22.5316C28.9296 22.5316 27.9858 23.4801 27.9858 24.6481C27.9858 25.8161 28.9296 26.7646 30.0919 26.7646C31.2543 26.7646 32.1981 25.8132 32.1981 24.6481ZM26.5991 24.6481C26.5991 23.4801 25.6553 22.5316 24.4929 22.5316C23.3306 22.5316 22.3867 23.4801 22.3867 24.6481C22.3867 25.8161 23.3306 26.7646 24.4929 26.7646C25.6523 26.7646 26.5991 25.8132 26.5991 24.6481ZM20.9972 24.6481C20.9972 23.4801 20.0533 22.5316 18.891 22.5316C17.7286 22.5316 16.7848 23.4801 16.7848 24.6481C16.7848 25.8161 17.7286 26.7646 18.891 26.7646C20.0533 26.7646 20.9972 25.8132 20.9972 24.6481ZM14.3873 23.3923C14.3873 23.12 14.1659 22.8975 13.895 22.8975H3.48054C3.20962 22.8975 2.98822 23.1171 2.98822 23.3923C2.98822 23.6645 3.20962 23.887 3.48054 23.887H13.895C14.1659 23.8841 14.3873 23.6645 14.3873 23.3923ZM14.3873 25.9039C14.3873 25.6317 14.1659 25.4092 13.895 25.4092H3.48054C3.20962 25.4092 2.98822 25.6288 2.98822 25.9039C2.98822 26.1762 3.20962 26.3986 3.48054 26.3986H13.895C14.1659 26.3957 14.3873 26.1762 14.3873 25.9039Z" fill="#01DA63" fill-opacity="0.9"/>
<path d="M30.0932 25.7785C30.7142 25.7785 31.2177 25.2726 31.2177 24.6485C31.2177 24.0245 30.7142 23.5186 30.0932 23.5186C29.4722 23.5186 28.9688 24.0245 28.9688 24.6485C28.9688 25.2726 29.4722 25.7785 30.0932 25.7785Z" fill="#01DA63" fill-opacity="0.9"/>
<path d="M24.4946 25.7753C25.114 25.7753 25.6162 25.2707 25.6162 24.6483C25.6162 24.0258 25.114 23.5212 24.4946 23.5212C23.8752 23.5212 23.373 24.0258 23.373 24.6483C23.373 25.2707 23.8752 25.7753 24.4946 25.7753Z" fill="#01DA63" fill-opacity="0.9"/>
<path d="M18.8921 25.7753C19.5115 25.7753 20.0136 25.2707 20.0136 24.6483C20.0136 24.0258 19.5115 23.5212 18.8921 23.5212C18.2726 23.5212 17.7705 24.0258 17.7705 24.6483C17.7705 25.2707 18.2726 25.7753 18.8921 25.7753Z" fill="#01DA63" fill-opacity="0.9"/>
</svg>
