<svg width="30" height="37" viewBox="0 0 30 37" fill="none" xmlns="http://www.w3.org/2000/svg">
<path d="M28.0241 9.22026H21.583L21.588 9.22361C20.7802 9.22198 20.1245 8.56627 20.1229 7.75849V1.31742L28.0241 9.22026Z" fill="#01DA63" fill-opacity="0.9"/>
<path d="M1.70665 0.133789H18.4575L18.4558 7.75863C18.4591 9.4919 19.8621 10.8949 21.5954 10.8982H29.2219V34.6703C29.2187 35.4781 28.5646 36.1322 27.7552 36.1338H1.70665C0.898864 36.1322 0.246435 35.4781 0.243164 34.6703V1.60053C0.244797 0.79112 0.898864 0.13706 1.70665 0.133789Z" fill="#01DA63" fill-opacity="0.9"/>
<path d="M9.55823 30.396C9.55823 30.8587 9.93267 31.2332 10.3954 31.2332H17.7733C18.2361 31.2332 18.6106 30.8588 18.6106 30.396C18.6106 29.9349 18.2361 29.5588 17.7733 29.5588H10.3954C9.93268 29.5588 9.55823 29.9349 9.55823 30.396Z" fill="#292C2A"/>
<path d="M7.30987 28.0528V28.0511L20.8589 28.0528C21.3216 28.0528 21.6961 27.6783 21.6961 27.2156C21.6961 26.7528 21.3216 26.3784 20.8589 26.3784H7.30987C6.84875 26.3784 6.47266 26.7528 6.47266 27.2156C6.47266 27.6783 6.84873 28.0528 7.30987 28.0528Z" fill="#292C2A"/>
<path d="M18.1936 20.1826V20.1821C18.1939 19.7195 18.5698 19.3454 19.0308 19.3454C19.4936 19.3454 19.868 19.7198 19.868 20.1826V22.1137C19.868 22.3361 19.7797 22.5487 19.6227 22.7057C19.4658 22.8627 19.2532 22.951 19.0308 22.951H9.23625C8.74896 22.951 8.37289 22.5585 8.40395 22.0255L8.43338 20.2153V20.2137C8.41703 19.9815 8.50043 19.7509 8.66231 19.5825C8.82255 19.4125 9.04825 19.3176 9.28209 19.3209C9.51592 19.3258 9.73825 19.4272 9.89359 19.6005C10.0489 19.7755 10.1242 20.0077 10.1013 20.2399L10.0849 21.2766H18.1937L18.1936 20.1826Z" fill="#292C2A"/>
<path d="M10.9379 15.4338C11.1635 15.4322 11.3778 15.3406 11.5331 15.1787L13.2844 13.4272L13.2092 18.5275C13.183 18.7629 13.2582 18.9968 13.4152 19.175C13.5705 19.3516 13.7962 19.4546 14.0317 19.4563C14.2688 19.4595 14.4944 19.3631 14.6563 19.1881C14.8165 19.0148 14.8967 18.7826 14.8754 18.5471V18.5455L14.9539 13.3669L16.764 15.1787C17.0911 15.5057 17.6209 15.5057 17.9479 15.1787C18.2766 14.8517 18.2766 14.3219 17.9495 13.9948H17.9479L14.7397 10.7882C14.4127 10.4612 13.8829 10.4612 13.5558 10.7882L10.3492 13.9948C10.1889 14.1502 10.0957 14.3644 10.0941 14.5901C10.0925 14.8141 10.1808 15.0299 10.3394 15.1885C10.498 15.3471 10.7138 15.4354 10.9379 15.4338Z" fill="#292C2A"/>
</svg>
