<svg width="29" height="36" viewBox="0 0 29 36" fill="none" xmlns="http://www.w3.org/2000/svg">
<path d="M27.7809 9.08647H21.3398L21.3449 9.08982C20.5371 9.08819 19.8814 8.43248 19.8797 7.6247V1.18363L27.7809 9.08647Z" fill="#01DA63" fill-opacity="0.9"/>
<path d="M1.46348 0H18.2144L18.2127 7.62484C18.2159 9.35811 19.6189 10.7611 21.3522 10.7644H28.9788V34.5365C28.9755 35.3443 28.3214 35.9984 27.512 36H1.46348C0.6557 35.9984 0.00327056 35.3443 0 34.5365V1.46675C0.00163256 0.657331 0.6557 0.00327056 1.46348 0Z" fill="#01DA63" fill-opacity="0.9"/>
<path d="M18.1615 20.0488V20.0483C18.1618 19.5857 18.5378 19.2116 18.9988 19.2116C19.4615 19.2116 19.836 19.586 19.836 20.0488V21.9799C19.836 22.2023 19.7477 22.4149 19.5907 22.5719C19.4337 22.7289 19.2212 22.8172 18.9988 22.8172H9.20421C8.71692 22.8172 8.34085 22.4247 8.37191 21.8917L8.40134 20.0815V20.0799C8.38499 19.8477 8.46839 19.6171 8.63027 19.4487C8.79051 19.2787 9.01621 19.1838 9.25005 19.1871C9.48388 19.192 9.70621 19.2934 9.86156 19.4667C10.0169 19.6417 10.0921 19.8739 10.0692 20.1061L10.0529 21.1428H18.1617L18.1615 20.0488Z" fill="#292C2A"/>
<path d="M10.9058 15.3C11.1315 15.2984 11.3457 15.2068 11.5011 15.0449L13.2523 13.2934L13.1771 18.3937C13.151 18.6292 13.2262 18.863 13.3832 19.0412C13.5385 19.2178 13.7642 19.3208 13.9996 19.3225C14.2367 19.3257 14.4624 19.2293 14.6243 19.0543C14.7845 18.881 14.8646 18.6488 14.8434 18.4133V18.4117L14.9219 13.2331L16.732 15.0449C17.059 15.3719 17.5888 15.3719 17.9159 15.0449C18.2445 14.7179 18.2445 14.1881 17.9175 13.8611H17.9159L14.7076 10.6545C14.3806 10.3274 13.8508 10.3274 13.5238 10.6545L10.3172 13.8611C10.1569 14.0164 10.0637 14.2306 10.0621 14.4563C10.0604 14.6803 10.1487 14.8961 10.3073 15.0547C10.466 15.2134 10.6818 15.3017 10.9058 15.3Z" fill="#292C2A"/>
<path d="M8.01999 30.9072C8.98243 30.9072 9.76264 30.127 9.76264 29.1645C9.76264 28.2021 8.98243 27.4219 8.01999 27.4219C7.05755 27.4219 6.27734 28.2021 6.27734 29.1645C6.27734 30.127 7.05755 30.9072 8.01999 30.9072Z" fill="#292C2A"/>
<path d="M21.605 27.4224H18.2592C18.2207 27.4224 18.1895 27.4536 18.1895 27.4921V30.8379C18.1895 30.8764 18.2207 30.9077 18.2592 30.9077H21.605C21.6435 30.9077 21.6747 30.8764 21.6747 30.8379V27.4921C21.6747 27.4536 21.6435 27.4224 21.605 27.4224Z" fill="#292C2A"/>
<path d="M13.912 27.4612L12.2809 30.7199C12.2755 30.7306 12.273 30.7425 12.2735 30.7544C12.274 30.7663 12.2776 30.7779 12.2839 30.7881C12.2902 30.7982 12.299 30.8066 12.3095 30.8123C12.3199 30.8181 12.3317 30.8211 12.3436 30.821H15.6059C15.6178 30.8211 15.6296 30.8181 15.64 30.8123C15.6505 30.8066 15.6593 30.7982 15.6656 30.7881C15.6719 30.7779 15.6755 30.7663 15.676 30.7544C15.6765 30.7425 15.674 30.7306 15.6686 30.7199L14.0375 27.4612C14.0318 27.4494 14.0229 27.4395 14.0118 27.4325C14.0007 27.4256 13.9878 27.4219 13.9747 27.4219C13.9617 27.4219 13.9488 27.4256 13.9377 27.4325C13.9266 27.4395 13.9177 27.4494 13.912 27.4612Z" fill="#292C2A"/>
</svg>
