<svg width="1005" height="256" viewBox="0 0 1005 256" fill="none" xmlns="http://www.w3.org/2000/svg">
<g clip-path="url(#clip0_17_2)">
<path d="M365.705 246.546L362.038 246.785V190.516H369.292V250.293H359.648L314.137 194.024L317.803 193.785V250.293H310.551V190.516H320.275L365.705 246.546ZM405.566 251.329C400.412 251.329 395.843 250.346 391.858 248.379C387.926 246.361 384.817 243.599 382.532 240.091C380.301 236.532 379.184 232.44 379.184 227.817C379.184 223.142 380.248 219.05 382.372 215.542C384.499 212.036 387.447 209.3 391.221 207.333C394.993 205.368 399.323 204.385 404.211 204.385C409.046 204.385 413.27 205.447 416.884 207.573C420.497 209.698 423.286 212.701 425.253 216.58C427.272 220.405 428.282 224.868 428.282 229.968H384.764V224.15H425.173L420.869 226.781C420.71 223.434 419.913 220.537 418.478 218.093C417.044 215.649 415.105 213.763 412.66 212.435C410.216 211.107 407.373 210.442 404.131 210.442C400.625 210.442 397.57 211.16 394.965 212.594C392.363 213.976 390.317 215.941 388.829 218.492C387.394 221.042 386.677 224.045 386.677 227.498C386.677 231.112 387.5 234.247 389.147 236.903C390.795 239.56 393.107 241.606 396.082 243.04C399.057 244.475 402.565 245.193 406.602 245.193C410.269 245.193 413.856 244.581 417.362 243.358C420.923 242.137 424.111 240.464 426.926 238.337V244.076C424.163 246.308 420.869 248.087 417.044 249.417C413.217 250.691 409.391 251.329 405.566 251.329ZM430.876 211.318V207.812L440.758 205.979L443.707 193.785H448.091V205.421H469.929V211.318H448.091V234.113C448.091 238.152 448.967 240.994 450.721 242.642C452.528 244.236 455.291 245.033 459.01 245.033C461.454 245.033 463.579 244.741 465.386 244.155C467.246 243.571 469.052 242.721 470.805 241.606V248.061C469.531 248.858 467.645 249.602 465.147 250.293C462.703 250.983 460.152 251.329 457.496 251.329C453.458 251.329 450.19 250.638 447.693 249.257C445.248 247.823 443.469 245.909 442.352 243.518C441.289 241.074 440.758 238.311 440.758 235.23V211.318H430.876ZM535.946 246.866H532.837L549.734 205.421H557.226L538.497 250.293H531.004L514.027 208.529H517.456L500.24 250.293H492.747L474.018 205.421H481.589L498.565 246.866H495.298L511.955 205.421H519.527L535.946 246.866ZM586.613 251.329C581.353 251.329 576.703 250.346 572.665 248.379C568.681 246.414 565.572 243.65 563.34 240.091C561.109 236.532 559.992 232.44 559.992 227.817C559.992 223.142 561.109 219.05 563.34 215.542C565.572 212.036 568.681 209.3 572.665 207.333C576.703 205.368 581.353 204.385 586.613 204.385C591.926 204.385 596.576 205.368 600.561 207.333C604.546 209.3 607.654 212.036 609.885 215.542C612.171 219.05 613.314 223.142 613.314 227.817C613.314 232.44 612.171 236.532 609.885 240.091C607.654 243.65 604.546 246.414 600.561 248.379C596.576 250.346 591.926 251.329 586.613 251.329ZM586.613 245.193C590.545 245.193 593.946 244.501 596.815 243.119C599.683 241.685 601.889 239.667 603.43 237.062C605.024 234.458 605.821 231.377 605.821 227.817C605.821 224.31 605.024 221.255 603.43 218.651C601.889 216.047 599.683 214.029 596.815 212.594C593.946 211.16 590.545 210.442 586.613 210.442C582.734 210.442 579.333 211.16 576.411 212.594C573.542 214.029 571.337 216.047 569.796 218.651C568.255 221.255 567.485 224.31 567.485 227.817C567.485 231.377 568.255 234.458 569.796 237.062C571.337 239.667 573.542 241.685 576.411 243.119C579.333 244.501 582.734 245.193 586.613 245.193ZM620.407 205.421H627.74L630.289 220.723V250.293H622.957V219.369L620.407 205.421ZM654.12 205.261V211.876C653.111 211.557 651.916 211.318 650.533 211.16C649.205 211 647.931 210.92 646.708 210.92C643.519 210.92 640.678 211.638 638.18 213.072C635.683 214.506 633.743 216.605 632.362 219.369C630.98 222.078 630.289 225.292 630.289 229.013L628.217 226.143C628.324 223.008 628.829 220.113 629.732 217.456C630.634 214.798 631.911 212.514 633.558 210.602C635.257 208.635 637.277 207.122 639.615 206.058C642.006 204.942 644.689 204.385 647.664 204.385C648.781 204.385 649.923 204.464 651.091 204.624C652.314 204.784 653.323 204.995 654.12 205.261ZM668.416 243.518L666.265 242.721L697.27 205.421H705.877L667.939 250.293H661.085V188.922H668.416V243.518ZM683.799 227.896L688.502 222.398L707.312 250.293H698.544L683.799 227.896Z" fill="white"/>
<path d="M172.055 96.8183C170.708 109.2 166.335 120.169 158.932 129.724C151.665 139.145 142.11 146.48 130.267 151.728C118.423 156.976 104.898 159.601 89.69 159.601C72.7325 159.601 57.8612 156.305 45.0757 149.709C32.2903 143.114 22.3313 133.963 15.1983 122.255C8.06546 110.411 4.49902 96.6838 4.49902 81.0721C4.49902 65.4605 8.06546 51.8003 15.1983 40.0916C22.3313 28.2484 32.2903 19.0294 45.0757 12.4348C57.8612 5.84034 72.7325 2.54297 89.69 2.54297C104.898 2.54297 118.423 5.16732 130.267 10.4162C142.11 15.6648 151.665 22.9997 158.932 32.4205C166.335 41.8413 170.708 52.8097 172.055 65.3259H145.206C143.725 57.251 140.495 50.32 135.515 44.5328C130.67 38.7457 124.345 34.3046 116.539 31.2092C108.733 27.9792 99.7163 26.3642 89.4881 26.3642C77.6449 26.3642 67.3492 28.5847 58.6014 33.026C49.988 37.4673 43.3262 43.7927 38.6158 52.0023C33.9054 60.2118 31.5501 69.9017 31.5501 81.0721C31.5501 92.2425 33.9054 101.933 38.6158 110.142C43.3262 118.351 49.988 124.677 58.6014 129.119C67.3492 133.56 77.6449 135.78 89.4881 135.78C99.7163 135.78 108.733 134.232 116.539 131.137C124.345 128.041 130.67 123.6 135.515 117.813C140.495 111.892 143.725 104.894 145.206 96.8183H172.055ZM234.975 156.775V84.504H261.622V156.775H234.975ZM163.512 5.36931H193.591L255.365 82.889H241.031L302.805 5.36931H332.884L256.777 100.855L239.819 101.058L163.512 5.36931ZM438.886 81.6778L441.512 75.8234C453.489 75.9579 463.246 77.7748 470.782 81.2739C478.453 84.7732 484.04 89.4835 487.539 95.4052C491.172 101.327 492.989 107.988 492.989 115.391C492.989 123.466 491.038 130.599 487.135 136.79C483.367 142.981 477.782 147.892 470.379 151.527C462.977 155.026 453.758 156.775 442.722 156.775H341.785L353.696 79.0534L341.785 5.36931H439.089C453.085 5.36931 463.852 8.66654 471.388 15.2611C479.059 21.7211 482.895 30.6709 482.895 42.1104C482.895 48.1665 481.414 54.0883 478.453 59.8753C475.628 65.5279 470.985 70.3728 464.525 74.4103C458.199 78.3132 449.653 80.7357 438.886 81.6778ZM368.634 149.305L358.339 135.376H439.695C448.038 135.376 454.499 133.492 459.074 129.724C463.784 125.821 466.14 120.302 466.14 113.171C466.14 105.633 463.382 99.7792 457.863 95.607C452.479 91.4349 444.473 89.349 433.841 89.349H368.231V68.7577H431.215C438.348 68.7577 444.27 66.8063 448.98 62.9034C453.69 58.8659 456.046 53.1462 456.046 45.744C456.046 40.2262 454.095 35.7177 450.191 32.2185C446.288 28.5847 440.637 26.7679 433.235 26.7679H358.339L368.634 12.8386L379.334 79.0534L368.634 149.305Z" fill="white"/>
<mask id="mask0_17_2" style="mask-type:luminance" maskUnits="userSpaceOnUse" x="501" y="-2" width="166" height="165">
<path d="M666.283 -1.48169H501.843V162.531H666.283V-1.48169Z" fill="white"/>
</mask>
<g mask="url(#mask0_17_2)">
<path d="M577.496 162.529L577.071 150.954H590.876L590.45 162.529C590.45 162.529 604.68 162.317 618.909 155.203L605.211 129.293L596.715 132.585L602.981 148.406C598.308 150.318 590.876 150.954 590.876 150.954L590.981 139.486H576.858V150.954C576.965 150.954 576.965 150.954 576.965 150.954C576.965 150.954 569.531 150.423 564.86 148.406L571.124 132.585L562.63 129.293L548.932 155.203C563.16 162.317 577.389 162.529 577.389 162.529H577.496Z" fill="#65DDDC"/>
<path d="M510.271 116.23L520.147 110.071L523.545 116.017L526.943 121.965L516.643 127.38C516.643 127.38 523.864 139.592 537.244 148.299L552.853 123.557L545.738 117.823L535.226 131.096C531.19 128.017 527.05 121.858 527.05 121.858L537.031 116.23L533.527 110.071L530.023 103.912L520.253 109.753C520.253 109.753 517.068 102.957 516.43 97.9655L533.209 95.5232L531.827 86.4973L502.52 87.6653C503.476 103.594 510.378 115.911 510.378 115.911L510.271 116.23Z" fill="#65DDDC"/>
<path d="M516.75 34.9979L527.05 40.4135L523.651 46.36L520.253 52.3064L510.378 46.1476C510.378 46.1476 503.476 58.5716 502.52 74.4998L531.827 75.6679L533.209 66.6419L516.43 64.1995C517.068 59.2088 520.253 52.5189 520.253 52.5189L530.023 58.3592L533.527 52.2004L537.031 46.0414L527.05 40.4135C527.05 40.4135 531.297 34.2545 535.226 31.1751L545.738 44.4487L552.853 38.7144L537.244 13.9727C523.971 22.7863 516.643 34.8918 516.643 34.8918L516.75 34.9979Z" fill="#65DDDC"/>
<path d="M590.448 -0.0429688L590.873 11.5316H577.068L577.494 -0.0429688C577.494 -0.0429688 563.264 0.169526 549.035 7.28408L562.733 33.1939L571.229 29.9021L564.963 14.0801C569.636 12.1686 577.068 11.5316 577.068 11.5316L576.963 22.9999H591.086V11.5316C590.979 11.5316 590.979 11.5316 590.979 11.5316C590.979 11.5316 598.413 12.0625 603.085 14.0801L596.82 29.9021L605.315 33.1939L619.014 7.28408C604.784 0.169526 590.555 -0.0429688 590.555 -0.0429688H590.448Z" fill="#65DDDC"/>
<path d="M657.56 46.2536L647.685 52.4126L644.286 46.466L640.888 40.5195L651.188 35.1039C651.188 35.1039 643.967 22.8923 630.589 14.1848L614.979 38.9267L622.093 44.6608L632.606 31.3873C636.641 34.4667 640.782 40.6257 640.782 40.6257L630.8 46.2536L634.305 52.4126L637.809 58.5714L647.578 52.7311C647.578 52.7311 650.764 59.5271 651.401 64.518L634.623 66.9602L636.004 75.9862L665.312 74.8181C664.355 58.8899 657.453 46.5723 657.453 46.5723L657.56 46.2536Z" fill="#65DDDC"/>
<path d="M651.083 127.488L640.782 122.072L644.18 116.125L647.578 110.179L657.453 116.338C657.453 116.338 664.355 103.913 665.312 87.9855L636.004 86.8174L634.623 95.8434L651.401 98.2856C650.764 103.277 647.578 109.967 647.578 109.967L637.809 104.126L634.305 110.285L630.8 116.444L640.782 122.072C640.782 122.072 636.535 128.23 632.606 131.31L622.093 118.037L614.979 123.771L630.589 148.513C643.862 139.699 651.188 127.594 651.188 127.594L651.083 127.488Z" fill="#65DDDC"/>
</g>
<path d="M701.812 73.6027H763.382C772.265 73.6027 779.264 71.5841 784.378 67.5465C789.627 63.5091 792.252 57.9912 792.252 50.9929C792.252 43.8599 789.627 38.342 784.378 34.4391C779.264 30.4017 772.265 28.3829 763.382 28.3829H697.976L709.887 13.4442V156.775H683.239V5.36931H765.805C776.437 5.36931 785.724 7.32063 793.664 11.2236C801.74 14.992 807.997 20.308 812.438 27.1716C817.015 33.9009 819.302 41.8413 819.302 50.9929C819.302 59.8753 817.015 67.7483 812.438 74.6121C807.997 81.3413 801.74 86.6573 793.664 90.5602C785.724 94.3285 776.437 96.2127 765.805 96.2127H701.812V73.6027ZM731.689 85.9171H762.98L823.138 156.775H791.242L731.689 85.9171ZM991.236 90.9639C991.101 100.385 989.285 109.267 985.785 117.612C982.286 125.821 977.307 133.088 970.847 139.414C964.387 145.739 956.513 150.719 947.228 154.352C938.076 157.851 927.578 159.601 915.736 159.601C903.757 159.601 892.655 157.785 882.425 154.151C872.198 150.517 863.247 145.336 855.576 138.607C848.04 131.743 842.186 123.466 838.014 113.776C833.842 104.085 831.756 93.1846 831.756 81.0721C831.756 68.9596 833.842 58.0585 838.014 48.3685C842.32 38.6786 848.309 30.469 855.981 23.7399C863.652 16.8761 872.668 11.6274 883.031 7.99366C893.394 4.35991 904.767 2.54297 917.149 2.54297C932.625 2.54297 946.152 5.10013 957.724 10.2143C969.434 15.1938 978.855 22.0576 985.988 30.8054C993.121 39.5533 997.495 49.5798 999.109 60.8847H972.058C970.578 53.7517 967.348 47.561 962.369 42.3123C957.523 37.0635 951.265 33.026 943.593 30.1998C935.922 27.3736 927.04 25.9604 916.946 25.9604C905.104 25.9604 894.807 28.181 886.06 32.6223C877.446 36.9289 870.717 43.187 865.872 51.3966C861.161 59.6061 858.806 69.498 858.806 81.0721C858.806 92.6462 861.229 102.605 866.075 110.949C871.054 119.294 878.052 125.686 887.07 130.127C896.086 134.569 906.718 136.79 918.966 136.79C930.809 136.79 941.171 134.771 950.053 130.733C958.936 126.696 965.935 121.111 971.048 113.978C976.163 106.711 978.922 98.2987 979.325 88.7434L991.236 90.9639ZM924.214 102.471V82.2833H1000.72V156.775H980.941L977.711 93.9921L983.969 102.471H924.214Z" fill="white"/>
</g>
<defs>
<clipPath id="clip0_17_2">
<rect width="1004.31" height="256" fill="white"/>
</clipPath>
</defs>
</svg>
